<svg xmlns="http://www.w3.org/2000/svg" xmlns:xlink="http://www.w3.org/1999/xlink" width="100" viewBox="0 0 75 74.999997" height="100" preserveAspectRatio="xMidYMid meet"><defs><clipPath id="e5123ec202"><path d="M 35 15.726562 L 39 15.726562 L 39 29 L 35 29 Z M 35 15.726562 " clip-rule="nonzero"></path></clipPath><clipPath id="1b28c94c35"><path d="M 15.167969 35 L 26 35 L 26 40 L 15.167969 40 Z M 15.167969 35 " clip-rule="nonzero"></path></clipPath><clipPath id="6152c185cf"><path d="M 35 46 L 39 46 L 39 59.226562 L 35 59.226562 Z M 35 46 " clip-rule="nonzero"></path></clipPath></defs><path stroke-linecap="butt" transform="matrix(0.749992, 0.0033656, -0.0033656, 0.749992, 3.812937, 3.34855)" fill="none" stroke-linejoin="miter" d="M 0.00165596 0.498806 L 24.350862 0.498914 " stroke="#c93438" stroke-width="1" stroke-opacity="1" stroke-miterlimit="4"></path><path stroke-linecap="butt" transform="matrix(0, -0.75, 0.75, 0, 3.431948, 21.614474)" fill="none" stroke-linejoin="miter" d="M 0.00158974 0.502194 L 24.35055 0.502194 " stroke="#c93438" stroke-width="1" stroke-opacity="1" stroke-miterlimit="4"></path><path stroke-linecap="butt" transform="matrix(0.749992, 0.0033656, -0.0033656, 0.749992, 53.190916, 70.831349)" fill="none" stroke-linejoin="miter" d="M -0.00230728 0.500925 L 24.513564 0.500286 " stroke="#c93438" stroke-width="1" stroke-opacity="1" stroke-miterlimit="4"></path><path stroke-linecap="butt" transform="matrix(0, -0.75, 0.75, 0, 70.822407, 71.655468)" fill="none" stroke-linejoin="miter" d="M -0.0010422 0.502416 L 24.514585 0.502416 " stroke="#c93438" stroke-width="1" stroke-opacity="1" stroke-miterlimit="4"></path><g clip-path="url(#e5123ec202)"><path fill="#f6f6f6" d="M 36.535156 18.457031 C 36.628906 18.519531 36.722656 18.527344 36.808594 18.601562 L 36.816406 27.066406 C 36.816406 27.488281 36.644531 28.757812 37.496094 28.429688 C 37.632812 28.3125 37.703125 28.191406 37.71875 28.011719 L 37.71875 18.578125 C 37.761719 18.542969 37.804688 18.519531 37.855469 18.492188 C 39.316406 17.832031 38.578125 15.726562 37.066406 15.917969 C 35.753906 16.183594 35.410156 17.746094 36.535156 18.457031 Z M 36.535156 18.457031 " fill-opacity="1" fill-rule="nonzero"></path></g><path fill="#f6f6f6" d="M 40.398438 25.804688 C 40.707031 25.726562 40.921875 25.546875 41.136719 25.316406 C 41.445312 24.859375 41.359375 24.371094 41.359375 23.855469 L 41.359375 21.890625 L 42.328125 21.890625 C 43.660156 21.882812 43.296875 21.101562 42.808594 21 C 42.59375 20.957031 42.328125 20.980469 42.105469 20.980469 L 40.902344 20.972656 C 40.3125 21.085938 40.464844 21.855469 40.464844 22.304688 L 40.464844 24.027344 C 40.464844 24.226562 40.507812 24.570312 40.429688 24.75 C 40.285156 25.09375 39.605469 24.757812 39.367188 25.109375 C 38.886719 25.777344 39.882812 25.933594 40.398438 25.804688 Z M 40.398438 25.804688 " fill-opacity="1" fill-rule="nonzero"></path><path fill="#f6f6f6" d="M 32.140625 21.890625 C 32.464844 21.890625 32.828125 21.855469 33.144531 21.90625 L 33.152344 24.371094 C 33.152344 24.578125 33.136719 24.816406 33.222656 25.015625 L 33.238281 25.058594 C 33.488281 25.660156 34.0625 25.847656 34.65625 25.855469 C 35.445312 25.769531 35.382812 24.988281 34.800781 24.957031 C 34.542969 24.9375 34.140625 25.066406 34.0625 24.742188 C 34.003906 24.441406 34.035156 24.0625 34.035156 23.753906 L 34.035156 22.019531 C 34.035156 20.980469 33.96875 20.988281 33.023438 20.988281 L 31.820312 21 C 31.640625 21.007812 31.53125 20.988281 31.402344 21.144531 C 30.929688 21.703125 31.710938 21.890625 32.140625 21.890625 Z M 32.140625 21.890625 " fill-opacity="1" fill-rule="nonzero"></path><path fill="#f6f6f6" d="M 51.785156 24.011719 C 53.640625 23.777344 53.546875 21.417969 51.675781 21.339844 C 49.890625 21.460938 49.976562 24.089844 51.785156 24.011719 Z M 51.785156 24.011719 " fill-opacity="1" fill-rule="nonzero"></path><path fill="#f6f6f6" d="M 23.042969 24.027344 C 24.75 23.632812 24.40625 21.179688 22.542969 21.359375 C 20.636719 21.761719 21.289062 24.304688 23.042969 24.027344 Z M 23.042969 24.027344 " fill-opacity="1" fill-rule="nonzero"></path><path fill="#f6f6f6" d="M 42.085938 27.710938 C 41.898438 27.855469 41.648438 28.003906 41.496094 28.183594 C 41.253906 28.457031 41.546875 28.921875 41.882812 28.902344 C 42.140625 28.886719 42.5 28.535156 42.679688 28.355469 L 43.710938 27.488281 C 44.128906 27.136719 44.773438 26.6875 44.835938 26.089844 L 44.851562 24.207031 C 44.964844 24.164062 45.1875 24.191406 45.304688 24.191406 L 47.230469 24.199219 C 48.078125 24.207031 48.035156 23.488281 47.605469 23.316406 C 47.433594 23.246094 46.328125 23.28125 46.113281 23.296875 L 44.988281 23.296875 C 44.054688 23.296875 43.96875 23.332031 43.96875 24.363281 L 43.96875 25.351562 C 43.96875 26.242188 43.683594 26.328125 43.039062 26.894531 Z M 42.085938 27.710938 " fill-opacity="1" fill-rule="nonzero"></path><path fill="#f6f6f6" d="M 26.914062 24.199219 L 28.84375 24.191406 C 29.109375 24.191406 29.394531 24.183594 29.660156 24.207031 L 29.660156 25.402344 C 29.660156 25.675781 29.617188 26.011719 29.71875 26.269531 C 29.898438 26.714844 32.0625 28.730469 32.636719 28.914062 L 32.664062 28.914062 C 32.964844 28.914062 33.03125 28.6875 33.109375 28.441406 C 32.878906 27.949219 31.210938 26.730469 30.707031 26.121094 L 30.601562 25.992188 C 30.527344 25.863281 30.542969 25.625 30.542969 25.480469 L 30.542969 24.492188 C 30.542969 24.097656 30.628906 23.546875 30.183594 23.359375 L 30.15625 23.351562 C 29.976562 23.28125 29.710938 23.308594 29.523438 23.296875 L 27.503906 23.296875 C 27.296875 23.296875 27.09375 23.289062 26.894531 23.316406 C 26.21875 23.445312 26.21875 24.199219 26.914062 24.199219 Z M 26.914062 24.199219 " fill-opacity="1" fill-rule="nonzero"></path><path fill="#f6f6f6" d="M 23.539062 26.089844 C 23.425781 26.140625 23.394531 26.207031 23.351562 26.328125 C 23.050781 27.144531 23.589844 28.148438 24.398438 28.398438 C 24.679688 28.484375 25.023438 28.457031 25.316406 28.457031 L 27.03125 28.457031 C 27.367188 28.457031 27.941406 28.363281 28.242188 28.570312 L 28.269531 28.585938 C 28.601562 28.808594 28.578125 29.03125 28.578125 29.394531 L 28.578125 30.121094 C 28.578125 30.644531 28.699219 30.953125 29.265625 30.921875 C 29.503906 30.792969 29.46875 30.628906 29.46875 30.378906 L 29.460938 29.796875 C 29.445312 28.6875 29.566406 28.191406 28.421875 27.652344 C 28.226562 27.554688 27.984375 27.574219 27.769531 27.582031 L 25.488281 27.589844 C 25.222656 27.589844 24.878906 27.625 24.628906 27.539062 L 24.59375 27.53125 C 24.457031 27.480469 24.378906 27.410156 24.320312 27.28125 L 24.269531 27.125 C 24.105469 26.628906 24.371094 25.976562 23.539062 26.089844 Z M 23.539062 26.089844 " fill-opacity="1" fill-rule="nonzero"></path><path fill="#f6f6f6" d="M 45.136719 28.59375 L 45.125 28.621094 C 45.058594 28.808594 45.050781 29.058594 45.050781 29.253906 L 45.039062 29.976562 C 45.039062 30.492188 44.945312 31.058594 45.675781 30.902344 C 45.96875 30.75 45.949219 30.542969 45.949219 30.25 L 45.949219 29.402344 C 45.949219 28.472656 46.226562 28.449219 47.03125 28.449219 L 49.503906 28.457031 C 51.476562 28.464844 51.667969 25.949219 50.585938 26.121094 C 50.515625 26.148438 50.414062 26.164062 50.363281 26.226562 C 50.25 26.601562 50.386719 27.273438 49.992188 27.488281 C 49.734375 27.625 49.390625 27.582031 49.109375 27.582031 L 47.453125 27.582031 C 46.507812 27.582031 45.546875 27.4375 45.136719 28.59375 Z M 45.136719 28.59375 " fill-opacity="1" fill-rule="nonzero"></path><path fill="#f6f6f6" d="M 40.183594 44.386719 L 40.183594 43.195312 L 40.945312 43.195312 L 40.9375 44.515625 C 40.9375 44.792969 40.835938 45.109375 41.050781 45.332031 C 41.28125 45.574219 41.804688 45.617188 41.863281 45.203125 C 41.898438 44.996094 41.855469 44.757812 41.855469 44.542969 L 41.847656 43.417969 C 41.847656 43.03125 41.863281 43.28125 42.15625 43.117188 C 42.636719 42.835938 42.355469 42.628906 42.964844 42.671875 L 43.890625 42.730469 C 44.378906 42.757812 44.859375 42.722656 44.6875 42.054688 C 44.585938 41.667969 44.027344 41.769531 43.726562 41.769531 L 42.730469 41.769531 L 42.730469 40.929688 L 43.753906 40.9375 C 44.054688 40.9375 44.457031 40.953125 44.707031 40.765625 C 44.851562 40.484375 44.945312 39.511719 44.578125 39.332031 C 44.363281 39.230469 43.050781 39.28125 42.722656 39.28125 L 42.722656 38.472656 L 43.820312 38.472656 C 44.078125 38.472656 44.386719 38.507812 44.636719 38.414062 C 44.722656 38.097656 44.894531 37.289062 44.722656 36.988281 C 44.59375 36.75 44.113281 36.824219 43.890625 36.824219 L 42.714844 36.816406 L 42.714844 36.269531 C 42.714844 36.183594 42.707031 36.089844 42.722656 36.011719 L 43.777344 36.011719 C 43.96875 36.011719 44.5 36.070312 44.636719 35.890625 C 44.773438 35.710938 44.816406 34.730469 44.75 34.507812 C 44.652344 34.207031 44.171875 34.285156 43.941406 34.285156 L 42.757812 34.285156 L 42.757812 33.308594 L 43.503906 33.324219 C 43.820312 33.332031 44.300781 33.417969 44.558594 33.179688 C 45.109375 32.65625 44.414062 32.335938 43.855469 32.363281 C 43.539062 32.378906 43.066406 32.515625 42.765625 32.464844 C 42.371094 31.625 42.042969 31.863281 41.820312 31.625 L 41.832031 30.335938 C 41.832031 30.105469 41.890625 29.726562 41.769531 29.53125 C 41.574219 29.382812 41.203125 29.382812 40.988281 29.496094 C 40.867188 29.691406 40.921875 30.140625 40.921875 30.371094 L 40.921875 31.648438 L 40.105469 31.648438 L 40.113281 30.449219 C 40.113281 29.734375 40.199219 29.316406 39.273438 29.339844 C 38.484375 29.359375 38.492188 29.632812 38.492188 30.277344 C 38.492188 30.730469 38.515625 31.210938 38.484375 31.667969 C 38.242188 31.675781 37.96875 31.703125 37.734375 31.660156 L 37.734375 30.398438 C 37.746094 29.71875 37.640625 29.167969 36.835938 29.546875 C 36.738281 29.804688 36.738281 30.070312 36.738281 30.34375 L 36.730469 31.230469 C 36.730469 31.351562 36.75 31.523438 36.714844 31.640625 L 35.960938 31.648438 C 35.847656 31.324219 36.078125 30.019531 35.890625 29.703125 L 35.875 29.667969 C 35.726562 29.410156 35.496094 29.316406 35.210938 29.324219 C 34.953125 29.351562 34.636719 29.382812 34.464844 29.589844 C 34.191406 29.917969 34.457031 31.308594 34.335938 31.632812 L 33.597656 31.640625 C 33.5625 31.539062 33.589844 31.382812 33.589844 31.273438 L 33.589844 30.207031 C 33.589844 29.863281 33.660156 29.640625 33.308594 29.460938 C 32.601562 29.117188 32.636719 29.753906 32.636719 30.234375 C 32.636719 30.6875 32.664062 31.167969 32.628906 31.625 L 32.613281 31.625 C 32.191406 31.71875 31.746094 32.0625 31.625 32.492188 C 31.246094 32.414062 30.878906 32.363281 30.492188 32.363281 C 29.941406 32.371094 29.425781 32.765625 29.933594 33.238281 L 29.949219 33.253906 C 30.242188 33.511719 31.308594 33.28125 31.667969 33.394531 L 31.667969 34.226562 L 30.699219 34.234375 C 30.484375 34.234375 30.207031 34.199219 30.019531 34.292969 L 29.984375 34.3125 C 29.511719 34.542969 29.605469 35.847656 30.003906 35.949219 L 30.140625 35.976562 C 30.65625 36.0625 31.222656 35.925781 31.71875 36.046875 C 31.71875 36.285156 31.746094 36.570312 31.710938 36.808594 C 31.445312 36.816406 29.90625 36.773438 29.820312 36.878906 C 29.605469 37.125 29.582031 38.164062 29.804688 38.328125 C 30.070312 38.527344 31.332031 38.449219 31.726562 38.492188 L 31.726562 39.265625 C 31.101562 39.316406 30.457031 39.210938 29.839844 39.316406 C 29.648438 39.648438 29.597656 40.171875 29.710938 40.542969 C 29.839844 40.996094 30.25 40.921875 30.628906 40.921875 L 31.667969 40.921875 L 31.667969 41.496094 C 31.667969 41.582031 31.675781 41.683594 31.660156 41.769531 L 30.65625 41.753906 C 30.492188 41.753906 30.3125 41.734375 30.15625 41.761719 C 29.847656 41.8125 29.660156 42.335938 29.875 42.550781 C 30.164062 42.84375 31.375 42.714844 31.796875 42.585938 C 32.070312 42.878906 32.5 43.109375 32.65625 43.289062 L 32.644531 44.636719 C 32.644531 44.816406 32.570312 45.238281 32.722656 45.375 C 32.996094 45.632812 33.546875 45.433594 33.597656 45.066406 C 33.632812 44.851562 33.617188 44.601562 33.617188 44.386719 L 33.617188 43.167969 C 33.839844 43.144531 34.097656 43.136719 34.320312 43.160156 L 34.320312 44.484375 C 34.320312 44.757812 34.242188 45.101562 34.464844 45.316406 C 34.78125 45.625 35.554688 45.632812 35.855469 45.289062 C 36.054688 45.058594 35.984375 44.636719 35.984375 44.355469 L 35.992188 43.1875 L 36.773438 43.1875 L 36.765625 44.40625 C 36.757812 44.765625 36.664062 45.53125 37.289062 45.488281 C 37.855469 45.453125 37.777344 44.800781 37.769531 44.414062 L 37.769531 43.203125 L 38.535156 43.1875 L 38.5 44.816406 C 38.464844 45.289062 38.878906 45.546875 39.316406 45.574219 C 40.15625 45.546875 40.183594 45.125 40.183594 44.386719 Z M 33.734375 42.335938 C 32.988281 42.34375 32.535156 42.585938 32.5 41.753906 L 32.492188 33.761719 C 32.492188 33.394531 32.449219 32.953125 32.527344 32.601562 C 32.765625 32.535156 33.007812 32.527344 33.253906 32.527344 L 40.558594 32.527344 C 40.867188 32.527344 41.589844 32.441406 41.847656 32.628906 C 41.96875 33.273438 41.917969 33.941406 41.925781 34.601562 L 41.925781 40.3125 C 41.925781 40.964844 41.984375 41.660156 41.847656 42.300781 L 41.167969 42.335938 Z M 33.734375 42.335938 " fill-opacity="1" fill-rule="nonzero"></path><path fill="#f6f6f6" d="M 20.800781 33.445312 L 21.710938 33.445312 C 22.019531 33.445312 22.535156 33.574219 22.585938 33.144531 L 22.613281 32.054688 L 23.925781 32.046875 C 25.160156 32.046875 25.210938 32.011719 25.746094 33.082031 C 26.121094 33.847656 26.730469 34.800781 27.589844 35.082031 C 28.003906 35.222656 29.09375 35.203125 28.679688 34.578125 C 28.484375 34.285156 28.140625 34.3125 27.847656 34.183594 C 26.183594 33.445312 26.730469 31.109375 24.492188 31.125 L 23.625 31.136719 L 22.59375 31.136719 C 21.539062 31.136719 21.695312 31.367188 21.710938 32.398438 L 21.71875 32.527344 L 20.816406 32.535156 C 20.441406 32.535156 19.925781 32.492188 19.96875 33.050781 C 20.003906 33.503906 20.464844 33.445312 20.800781 33.445312 Z M 20.800781 33.445312 " fill-opacity="1" fill-rule="nonzero"></path><path fill="#f6f6f6" d="M 52.851562 31.992188 C 52.84375 30.953125 52.40625 31.136719 51.605469 31.136719 L 49.753906 31.125 C 47.804688 31.28125 48.128906 33.640625 46.707031 34.148438 C 46.429688 34.242188 45.648438 34.355469 45.691406 34.773438 C 45.734375 35.195312 46.457031 35.160156 46.730469 35.117188 C 47.347656 35.015625 47.890625 34.464844 48.242188 33.976562 L 49.152344 32.378906 L 49.304688 32.191406 C 49.433594 32.035156 51.605469 31.976562 51.941406 32.097656 L 51.949219 32.699219 C 51.949219 32.972656 51.890625 33.351562 52.234375 33.425781 L 52.257812 33.4375 C 52.421875 33.480469 52.636719 33.460938 52.808594 33.460938 L 53.8125 33.460938 C 53.949219 33.460938 54.199219 33.488281 54.328125 33.417969 C 54.601562 33.28125 54.558594 32.628906 54.25 32.570312 C 54.097656 32.542969 53.925781 32.550781 53.769531 32.550781 L 52.859375 32.550781 Z M 52.851562 31.992188 " fill-opacity="1" fill-rule="nonzero"></path><path fill="#f6f6f6" d="M 39.265625 35.015625 C 39.265625 34.699219 39.253906 34.40625 38.792969 34.398438 C 38.214844 34.542969 38.355469 34.996094 38.355469 35.4375 L 38.355469 39.359375 C 38.355469 39.675781 38.355469 40.226562 38.867188 40.207031 C 39.359375 40.070312 39.273438 39.503906 39.265625 39.152344 Z M 39.265625 35.015625 " fill-opacity="1" fill-rule="nonzero"></path><path fill="#f6f6f6" d="M 36.226562 34.441406 C 36.054688 34.386719 35.855469 34.386719 35.675781 34.40625 C 34.40625 34.621094 34.507812 35.574219 34.507812 36.558594 L 34.507812 39.28125 C 34.507812 39.476562 34.484375 39.710938 34.535156 39.90625 C 34.757812 40.214844 35.332031 40.199219 35.375 39.753906 L 35.382812 38.910156 L 36.226562 38.910156 L 36.3125 38.921875 C 36.464844 39.289062 36.15625 39.898438 36.65625 40.113281 C 36.972656 40.25 37.230469 39.976562 37.230469 39.660156 L 37.210938 36.078125 C 37.210938 35.265625 37.167969 34.707031 36.226562 34.441406 Z M 36.328125 36.320312 L 36.3125 37.941406 L 35.382812 37.941406 C 35.367188 37.726562 35.316406 35.625 35.417969 35.496094 C 35.511719 35.382812 35.710938 35.351562 35.847656 35.324219 C 36.472656 35.375 36.328125 35.863281 36.328125 36.320312 Z M 36.328125 36.320312 " fill-opacity="1" fill-rule="nonzero"></path><g clip-path="url(#1b28c94c35)"><path fill="#f6f6f6" d="M 24.191406 38.679688 C 24.191406 39.949219 25.058594 39.46875 25.082031 39.160156 C 25.109375 38.945312 25.09375 38.707031 25.09375 38.492188 L 25.09375 36.046875 C 25.09375 35.847656 25.144531 35.589844 25.058594 35.410156 L 25.050781 35.382812 C 24.964844 35.203125 24.800781 35.136719 24.613281 35.117188 C 24.078125 35.253906 24.191406 35.726562 24.191406 36.164062 L 24.191406 36.773438 L 18.75 36.78125 C 18.535156 36.78125 18.414062 36.851562 18.304688 36.636719 C 17.992188 36.019531 17.015625 35.753906 16.421875 36.078125 C 15.195312 36.75 15.566406 38.664062 17.1875 38.644531 C 17.683594 38.585938 18.191406 38.285156 18.363281 37.796875 C 18.441406 37.5625 18.957031 37.667969 19.203125 37.667969 L 24.183594 37.675781 Z M 24.191406 38.679688 " fill-opacity="1" fill-rule="nonzero"></path></g><path fill="#f6f6f6" d="M 56.878906 36.097656 C 56.695312 36.171875 56.386719 36.34375 56.320312 36.535156 L 56.265625 36.6875 C 56.25 36.730469 56.25 36.742188 56.214844 36.773438 L 50.328125 36.773438 L 50.328125 35.882812 C 50.328125 35.511719 50.328125 35.09375 49.8125 35.125 L 49.726562 35.136719 C 49.367188 35.324219 49.417969 35.625 49.417969 35.976562 L 49.425781 38.226562 C 49.425781 38.484375 49.410156 38.75 49.433594 38.996094 C 49.496094 39.675781 50.285156 39.605469 50.328125 38.996094 L 50.328125 37.667969 L 55.390625 37.675781 C 55.648438 37.675781 55.914062 37.667969 56.171875 37.703125 L 56.226562 37.863281 C 56.386719 38.371094 57.023438 38.644531 57.511719 38.644531 C 59.804688 38.421875 58.859375 35.273438 56.878906 36.097656 Z M 56.878906 36.097656 " fill-opacity="1" fill-rule="nonzero"></path><path fill="#f6f6f6" d="M 54.257812 41.136719 C 53.96875 41.074219 53.632812 41.101562 53.324219 41.101562 C 52.507812 41.101562 51.949219 40.867188 51.949219 41.898438 L 51.949219 42.472656 L 50.421875 42.472656 C 50.0625 42.472656 49.667969 42.507812 49.304688 42.421875 C 48.378906 41.488281 48.0625 39.496094 46.457031 39.488281 L 46.300781 39.496094 C 45.589844 39.597656 45.46875 40.234375 46.242188 40.386719 C 46.738281 40.492188 47.109375 40.570312 47.410156 41.023438 C 47.992188 41.917969 48.378906 43.304688 49.648438 43.359375 L 52.148438 43.375 C 52.277344 43.382812 52.421875 43.402344 52.542969 43.359375 L 52.566406 43.347656 C 52.84375 43.253906 52.824219 42.894531 52.824219 42.664062 L 52.824219 42.011719 L 53.648438 42.019531 C 53.726562 42.019531 53.871094 42.042969 53.941406 42.035156 C 54.773438 42.035156 54.664062 41.222656 54.257812 41.136719 Z M 54.257812 41.136719 " fill-opacity="1" fill-rule="nonzero"></path><path fill="#f6f6f6" d="M 21.695312 42.671875 C 21.695312 43.632812 22.433594 43.359375 23.230469 43.359375 L 25.007812 43.359375 C 26.570312 43.304688 26.484375 40.859375 27.90625 40.449219 C 28.234375 40.355469 28.742188 40.457031 28.722656 39.976562 C 28.707031 39.496094 28.234375 39.511719 27.875 39.53125 C 26.371094 39.691406 26.121094 41.347656 25.316406 42.269531 C 25.050781 42.570312 24.570312 42.457031 24.207031 42.457031 L 22.613281 42.457031 C 22.613281 42.0625 22.757812 41.296875 22.277344 41.125 L 22.25 41.117188 C 22.011719 41.03125 20.628906 41.066406 20.328125 41.082031 C 19.832031 41.109375 19.8125 41.992188 20.363281 42.019531 L 20.835938 41.992188 L 21.695312 41.992188 Z M 21.695312 42.671875 " fill-opacity="1" fill-rule="nonzero"></path><path fill="#f6f6f6" d="M 29.160156 46.3125 C 29.503906 45.898438 29.445312 45.289062 29.445312 44.792969 C 29.445312 44.25 29.554688 43.847656 28.835938 43.863281 C 28.132812 44.234375 28.980469 45.53125 28.261719 45.933594 C 28.019531 46.0625 27.691406 46.019531 27.425781 46.011719 L 25.820312 46 C 24.207031 46 23.203125 46.171875 23.273438 48.085938 C 23.289062 48.535156 23.367188 48.714844 23.863281 48.644531 C 24.570312 48.414062 23.796875 47.359375 24.5 47.050781 L 24.714844 46.972656 C 24.988281 46.894531 25.382812 46.9375 25.667969 46.9375 L 27.210938 46.9375 C 28.046875 46.945312 28.570312 47.03125 29.160156 46.3125 Z M 29.160156 46.3125 " fill-opacity="1" fill-rule="nonzero"></path><path fill="#f6f6f6" d="M 50.652344 48.644531 L 50.851562 48.679688 C 50.9375 48.664062 51.066406 48.664062 51.117188 48.578125 C 51.230469 48.414062 51.210938 47.574219 51.175781 47.359375 L 51.167969 47.324219 C 51.058594 46.601562 50.335938 46.027344 49.605469 46.011719 L 47.058594 46.011719 C 46.257812 46.011719 45.941406 46.121094 45.941406 45.136719 L 45.941406 44.542969 C 45.941406 44.164062 45.871094 43.847656 45.390625 43.882812 C 44.953125 44.019531 45.039062 44.414062 45.039062 44.800781 C 45.039062 45.605469 45.023438 46.371094 45.871094 46.773438 L 46.054688 46.851562 C 46.234375 46.929688 46.457031 46.929688 46.644531 46.9375 L 49.074219 46.9375 C 49.511719 46.9375 49.957031 46.859375 50.226562 47.28125 L 50.242188 47.304688 C 50.5 47.710938 50 48.472656 50.652344 48.644531 Z M 50.652344 48.644531 " fill-opacity="1" fill-rule="nonzero"></path><path fill="#f6f6f6" d="M 46.84375 50.480469 L 45.410156 50.480469 C 45.238281 50.480469 45.007812 50.507812 44.84375 50.472656 L 44.84375 49.210938 C 44.84375 48.945312 44.878906 48.621094 44.800781 48.371094 C 44.636719 47.898438 43.617188 47.136719 43.246094 46.800781 C 42.859375 46.457031 42.386719 45.890625 41.832031 45.890625 L 41.789062 45.890625 C 41.519531 45.957031 41.445312 46.128906 41.453125 46.386719 C 41.554688 46.628906 41.863281 46.808594 42.070312 46.972656 L 43.359375 48.054688 C 43.855469 48.515625 43.992188 48.609375 43.992188 49.289062 L 43.992188 50.371094 C 43.992188 51.453125 44.105469 51.402344 45.058594 51.402344 L 46.609375 51.402344 C 46.886719 51.402344 47.230469 51.460938 47.496094 51.410156 C 47.625 51.347656 47.753906 51.273438 47.796875 51.125 L 47.820312 51.015625 C 47.925781 50.355469 47.21875 50.480469 46.84375 50.480469 Z M 46.84375 50.480469 " fill-opacity="1" fill-rule="nonzero"></path><path fill="#f6f6f6" d="M 32.910156 45.992188 C 32.808594 45.890625 32.707031 45.898438 32.558594 45.90625 L 32.535156 45.90625 C 32.113281 46.027344 31.8125 46.285156 31.480469 46.558594 L 30.464844 47.46875 C 29.734375 48.191406 29.675781 48.269531 29.667969 49.246094 L 29.667969 50.480469 L 27.640625 50.480469 C 27.367188 50.480469 27.023438 50.449219 26.757812 50.5 C 26.328125 50.585938 26.234375 51.324219 26.929688 51.390625 L 29.789062 51.390625 C 30.636719 51.402344 30.542969 50.945312 30.542969 50.292969 L 30.542969 49.082031 C 30.542969 48.964844 30.515625 48.765625 30.558594 48.652344 C 30.6875 48.328125 32.070312 47.21875 32.386719 46.972656 C 32.707031 46.730469 33.382812 46.457031 32.910156 45.992188 Z M 32.910156 45.992188 " fill-opacity="1" fill-rule="nonzero"></path><g clip-path="url(#6152c185cf)"><path fill="#f6f6f6" d="M 38.035156 56.609375 C 37.667969 56.335938 37.703125 56.535156 37.710938 56.042969 L 37.710938 47.804688 C 37.710938 47.367188 37.863281 46.515625 37.160156 46.59375 L 37.125 46.601562 C 36.699219 46.84375 36.808594 47.375 36.808594 47.796875 L 36.765625 56.464844 C 35.460938 56.75 35.589844 59.261719 37.339844 59.117188 C 38.671875 58.945312 39.074219 57.390625 38.035156 56.609375 Z M 38.035156 56.609375 " fill-opacity="1" fill-rule="nonzero"></path></g><path fill="#f6f6f6" d="M 42.902344 52.964844 C 42.714844 52.859375 42.414062 52.894531 42.207031 52.894531 L 41.390625 52.894531 C 41.347656 52.636719 41.367188 52.34375 41.367188 52.085938 L 41.367188 50.6875 C 41.367188 50.429688 41.402344 50.140625 41.316406 49.890625 C 41.125 49.296875 40.335938 48.964844 39.761719 49.023438 C 39.230469 49.167969 39.082031 49.726562 39.597656 49.933594 C 39.8125 50.019531 40.292969 49.949219 40.441406 50.121094 C 40.484375 50.386719 40.457031 50.695312 40.457031 50.972656 L 40.457031 52.609375 C 40.457031 53.03125 40.371094 53.53125 40.757812 53.796875 C 40.886719 53.890625 42.457031 53.847656 42.730469 53.847656 C 43.179688 53.761719 43.332031 53.203125 42.902344 52.964844 Z M 42.902344 52.964844 " fill-opacity="1" fill-rule="nonzero"></path><path fill="#f6f6f6" d="M 34.25 49.039062 C 33.769531 49.152344 33.265625 49.453125 33.167969 49.96875 L 33.160156 50 C 33.101562 50.320312 33.136719 50.6875 33.144531 51.015625 L 33.152344 52.886719 L 32.183594 52.894531 C 32.019531 52.894531 31.832031 52.878906 31.675781 52.902344 C 31.367188 52.953125 31.210938 53.503906 31.445312 53.71875 C 31.640625 53.898438 32.097656 53.839844 32.355469 53.839844 L 33.410156 53.839844 C 34.199219 53.839844 34.035156 53.296875 34.035156 52.621094 L 34.035156 51.125 C 34.035156 50.722656 33.882812 50.042969 34.34375 49.984375 C 34.613281 49.949219 34.945312 49.984375 35.144531 49.769531 C 35.632812 49.203125 34.714844 48.996094 34.25 49.039062 Z M 34.25 49.039062 " fill-opacity="1" fill-rule="nonzero"></path><path fill="#f6f6f6" d="M 22.722656 50.566406 C 20.878906 50.714844 20.972656 53.28125 22.835938 53.289062 C 24.621094 53.125 24.515625 50.644531 22.722656 50.566406 Z M 22.722656 50.566406 " fill-opacity="1" fill-rule="nonzero"></path><path fill="#f6f6f6" d="M 51.5625 50.609375 C 49.710938 50.886719 50.097656 53.453125 51.863281 53.28125 C 53.65625 52.988281 53.433594 50.515625 51.5625 50.609375 Z M 51.5625 50.609375 " fill-opacity="1" fill-rule="nonzero"></path></svg>