<svg xmlns="http://www.w3.org/2000/svg" xmlns:xlink="http://www.w3.org/1999/xlink" width="100" viewBox="0 0 75 74.999997" height="100" preserveAspectRatio="xMidYMid meet"><defs><clipPath id="f7f1081b4c"><path d="M 17.929688 27 L 20 27 L 20 30 L 17.929688 30 Z M 17.929688 27 " clip-rule="nonzero"></path></clipPath><clipPath id="a01d35fe47"><path d="M 30.933594 45.488281 L 47.804688 45.488281 L 47.804688 54.53125 L 30.933594 54.53125 Z M 30.933594 45.488281 " clip-rule="nonzero"></path></clipPath><clipPath id="ba9a928d1c"><path d="M 42.246094 34.230469 L 52.429688 34.230469 L 52.429688 44.671875 L 42.246094 44.671875 Z M 42.246094 34.230469 " clip-rule="nonzero"></path></clipPath><clipPath id="32da6b047b"><path d="M 46 21.082031 L 48 21.082031 L 48 24 L 46 24 Z M 46 21.082031 " clip-rule="nonzero"></path></clipPath></defs><path stroke-linecap="butt" transform="matrix(0.749992, 0.0033656, -0.0033656, 0.749992, 8.028285, 7.500013)" fill="none" stroke-linejoin="miter" d="M 0.000988982 0.499983 L 24.709567 0.498479 " stroke="#c93438" stroke-width="1" stroke-opacity="1" stroke-miterlimit="4"></path><path stroke-linecap="butt" transform="matrix(0, -0.75, 0.75, 0, 7.646721, 26.030549)" fill="none" stroke-linejoin="miter" d="M -0.000935261 0.502289 L 24.712608 0.502289 " stroke="#c93438" stroke-width="1" stroke-opacity="1" stroke-miterlimit="4"></path><path stroke-linecap="butt" transform="matrix(0.749992, 0.0033656, -0.0033656, 0.749992, 48.966439, 66.666834)" fill="none" stroke-linejoin="miter" d="M 0.000123412 0.501518 L 24.713909 0.499991 " stroke="#c93438" stroke-width="1" stroke-opacity="1" stroke-miterlimit="4"></path><path stroke-linecap="butt" transform="matrix(0, -0.75, 0.75, 0, 66.745119, 67.496785)" fill="none" stroke-linejoin="miter" d="M 0.00092125 0.501299 L 24.709257 0.501299 " stroke="#c93438" stroke-width="1" stroke-opacity="1" stroke-miterlimit="4"></path><path fill="#ffffff" d="M 27.746094 46.246094 C 27.210938 46.246094 26.777344 46.679688 26.777344 47.214844 C 26.777344 47.746094 27.210938 48.179688 27.746094 48.179688 C 28.277344 48.179688 28.710938 47.746094 28.710938 47.214844 C 28.710938 46.679688 28.277344 46.246094 27.746094 46.246094 Z M 27.746094 48.804688 C 26.867188 48.804688 26.152344 48.089844 26.152344 47.214844 C 26.152344 46.335938 26.867188 45.625 27.746094 45.625 C 28.621094 45.625 29.335938 46.335938 29.335938 47.214844 C 29.335938 48.089844 28.621094 48.804688 27.746094 48.804688 " fill-opacity="1" fill-rule="nonzero"></path><path fill="#ffffff" d="M 34.75 46.246094 C 34.214844 46.246094 33.78125 46.679688 33.78125 47.214844 C 33.78125 47.746094 34.214844 48.179688 34.75 48.179688 C 35.28125 48.179688 35.714844 47.746094 35.714844 47.214844 C 35.714844 46.679688 35.28125 46.246094 34.75 46.246094 Z M 34.75 48.804688 C 33.871094 48.804688 33.15625 48.089844 33.15625 47.214844 C 33.15625 46.335938 33.871094 45.625 34.75 45.625 C 35.625 45.625 36.339844 46.335938 36.339844 47.214844 C 36.339844 48.089844 35.625 48.804688 34.75 48.804688 " fill-opacity="1" fill-rule="nonzero"></path><path fill="#ffffff" d="M 28.164062 46.316406 C 28.109375 46.316406 28.054688 46.300781 28.003906 46.269531 C 27.855469 46.179688 27.808594 45.988281 27.898438 45.84375 L 28.511719 44.84375 C 28.601562 44.695312 28.792969 44.652344 28.941406 44.742188 C 29.085938 44.832031 29.132812 45.023438 29.042969 45.167969 L 28.429688 46.167969 C 28.371094 46.261719 28.269531 46.316406 28.164062 46.316406 " fill-opacity="1" fill-rule="nonzero"></path><path fill="#ffffff" d="M 35.355469 46.316406 C 35.300781 46.316406 35.246094 46.300781 35.195312 46.269531 C 35.046875 46.179688 35 45.988281 35.089844 45.84375 L 35.703125 44.84375 C 35.792969 44.695312 35.984375 44.652344 36.132812 44.742188 C 36.277344 44.832031 36.324219 45.023438 36.234375 45.167969 L 35.621094 46.167969 C 35.5625 46.261719 35.460938 46.316406 35.355469 46.316406 " fill-opacity="1" fill-rule="nonzero"></path><path fill="#ffffff" d="M 37.019531 45.316406 L 25.960938 45.316406 C 24.753906 45.316406 23.773438 44.335938 23.773438 43.128906 L 23.773438 40.640625 L 24.398438 40.640625 L 24.398438 43.128906 C 24.398438 43.992188 25.097656 44.695312 25.960938 44.695312 L 37.019531 44.695312 C 37.191406 44.695312 37.328125 44.832031 37.328125 45.003906 C 37.328125 45.175781 37.191406 45.316406 37.019531 45.316406 " fill-opacity="1" fill-rule="nonzero"></path><path fill="#ffffff" d="M 38.203125 37.503906 L 22.367188 36.707031 L 22.398438 36.085938 L 38.238281 36.882812 L 38.203125 37.503906 " fill-opacity="1" fill-rule="nonzero"></path><path fill="#ffffff" d="M 27.433594 40.929688 L 26.835938 32.375 L 27.457031 32.328125 L 28.054688 40.886719 L 27.433594 40.929688 " fill-opacity="1" fill-rule="nonzero"></path><path fill="#ffffff" d="M 32.859375 40.917969 L 32.644531 33.035156 L 33.265625 33.019531 L 33.480469 40.902344 L 32.859375 40.917969 " fill-opacity="1" fill-rule="nonzero"></path><path fill="#ffffff" d="M 38.15625 34.199219 L 37.691406 39.820312 C 37.652344 40.253906 37.28125 40.597656 36.84375 40.597656 L 24.074219 40.597656 C 23.652344 40.597656 23.300781 40.296875 23.234375 39.878906 L 22.050781 32.234375 L 37.855469 33.839844 C 38.039062 33.855469 38.171875 34.019531 38.15625 34.199219 Z M 37.921875 33.21875 L 21.925781 31.59375 L 21.476562 29.953125 C 21.289062 29.265625 20.757812 28.722656 20.070312 28.527344 L 19.691406 28.417969 L 19.519531 29.015625 L 19.898438 29.125 C 20.375 29.261719 20.746094 29.636719 20.875 30.117188 L 21.121094 31.015625 C 21.289062 31.636719 21.425781 32.269531 21.523438 32.90625 L 22.621094 39.972656 C 22.675781 40.320312 22.851562 40.636719 23.117188 40.867188 C 23.382812 41.09375 23.722656 41.21875 24.074219 41.21875 L 36.820312 41.21875 C 37.148438 41.21875 37.46875 41.121094 37.726562 40.925781 C 38.066406 40.667969 38.277344 40.289062 38.3125 39.871094 L 38.777344 34.25 C 38.820312 33.734375 38.4375 33.269531 37.921875 33.21875 " fill-opacity="1" fill-rule="nonzero"></path><g clip-path="url(#f7f1081b4c)"><path fill="#ffffff" d="M 18.925781 28.34375 C 18.71875 28.34375 18.554688 28.511719 18.554688 28.714844 C 18.554688 28.921875 18.71875 29.085938 18.925781 29.085938 C 19.128906 29.085938 19.296875 28.921875 19.296875 28.714844 C 19.296875 28.511719 19.128906 28.34375 18.925781 28.34375 Z M 18.925781 29.710938 C 18.375 29.710938 17.929688 29.261719 17.929688 28.714844 C 17.929688 28.167969 18.375 27.722656 18.925781 27.722656 C 19.472656 27.722656 19.917969 28.167969 19.917969 28.714844 C 19.917969 29.261719 19.472656 29.710938 18.925781 29.710938 " fill-opacity="1" fill-rule="nonzero"></path></g><g clip-path="url(#a01d35fe47)"><path fill="#ffffff" d="M 44.867188 54.53125 L 33.859375 54.53125 C 32.25 54.53125 30.941406 53.222656 30.941406 51.613281 L 30.941406 46.472656 C 30.941406 46.300781 31.082031 46.160156 31.253906 46.160156 C 31.425781 46.160156 31.5625 46.300781 31.5625 46.472656 L 31.5625 51.613281 C 31.5625 52.878906 32.59375 53.910156 33.859375 53.910156 L 44.867188 53.910156 C 46.132812 53.910156 47.164062 52.878906 47.164062 51.613281 L 47.164062 45.808594 C 47.164062 45.636719 47.304688 45.5 47.476562 45.5 C 47.648438 45.5 47.785156 45.636719 47.785156 45.808594 L 47.785156 51.613281 C 47.785156 53.222656 46.476562 54.53125 44.867188 54.53125 " fill-opacity="1" fill-rule="nonzero"></path></g><path fill="#ffffff" d="M 47.476562 33.359375 C 47.304688 33.359375 47.164062 33.222656 47.164062 33.050781 L 47.164062 27.273438 C 47.164062 26.007812 46.132812 24.976562 44.867188 24.976562 L 33.859375 24.976562 C 32.59375 24.976562 31.5625 26.007812 31.5625 27.273438 L 31.5625 31.359375 C 31.5625 31.53125 31.425781 31.671875 31.253906 31.671875 C 31.082031 31.671875 30.941406 31.53125 30.941406 31.359375 L 30.941406 27.273438 C 30.941406 25.664062 32.25 24.355469 33.859375 24.355469 L 44.867188 24.355469 C 46.476562 24.355469 47.785156 25.664062 47.785156 27.273438 L 47.785156 33.050781 C 47.785156 33.222656 47.648438 33.359375 47.476562 33.359375 " fill-opacity="1" fill-rule="nonzero"></path><path fill="#ffffff" d="M 40.769531 27.335938 L 37.957031 27.335938 C 37.785156 27.335938 37.648438 27.195312 37.648438 27.023438 C 37.648438 26.851562 37.785156 26.714844 37.957031 26.714844 L 40.769531 26.714844 C 40.941406 26.714844 41.082031 26.851562 41.082031 27.023438 C 41.082031 27.195312 40.941406 27.335938 40.769531 27.335938 " fill-opacity="1" fill-rule="nonzero"></path><path fill="#ffffff" d="M 37.109375 27.023438 C 37.109375 27.195312 36.972656 27.335938 36.800781 27.335938 C 36.628906 27.335938 36.488281 27.195312 36.488281 27.023438 C 36.488281 26.851562 36.628906 26.714844 36.800781 26.714844 C 36.972656 26.714844 37.109375 26.851562 37.109375 27.023438 " fill-opacity="1" fill-rule="nonzero"></path><path fill="#ffffff" d="M 42.238281 27.023438 C 42.238281 27.195312 42.101562 27.335938 41.929688 27.335938 C 41.757812 27.335938 41.617188 27.195312 41.617188 27.023438 C 41.617188 26.851562 41.757812 26.714844 41.929688 26.714844 C 42.101562 26.714844 42.238281 26.851562 42.238281 27.023438 " fill-opacity="1" fill-rule="nonzero"></path><g clip-path="url(#ba9a928d1c)"><path fill="#ffffff" d="M 47.476562 34.855469 C 44.945312 34.855469 42.886719 36.914062 42.886719 39.445312 C 42.886719 41.972656 44.945312 44.03125 47.476562 44.03125 C 50.003906 44.03125 52.0625 41.972656 52.0625 39.445312 C 52.0625 36.914062 50.003906 34.855469 47.476562 34.855469 Z M 47.476562 44.65625 C 44.601562 44.65625 42.261719 42.316406 42.261719 39.445312 C 42.261719 36.570312 44.601562 34.230469 47.476562 34.230469 C 50.347656 34.230469 52.6875 36.570312 52.6875 39.445312 C 52.6875 42.316406 50.347656 44.65625 47.476562 44.65625 " fill-opacity="1" fill-rule="nonzero"></path></g><path fill="#ffffff" d="M 47.054688 40.824219 C 46.972656 40.824219 46.894531 40.792969 46.835938 40.734375 L 45.769531 39.664062 C 45.648438 39.542969 45.648438 39.347656 45.769531 39.226562 C 45.890625 39.105469 46.085938 39.105469 46.207031 39.226562 L 47.054688 40.074219 L 48.976562 38.15625 C 49.097656 38.03125 49.292969 38.03125 49.414062 38.15625 C 49.535156 38.277344 49.535156 38.472656 49.414062 38.59375 L 47.277344 40.734375 C 47.21875 40.792969 47.136719 40.824219 47.054688 40.824219 " fill-opacity="1" fill-rule="nonzero"></path><path fill="#ffffff" d="M 50.742188 25.503906 L 48.671875 25.503906 C 48.5 25.503906 48.359375 25.367188 48.359375 25.191406 C 48.359375 25.019531 48.5 24.882812 48.671875 24.882812 L 50.742188 24.882812 C 50.914062 24.882812 51.054688 25.019531 51.054688 25.191406 C 51.054688 25.367188 50.914062 25.503906 50.742188 25.503906 " fill-opacity="1" fill-rule="nonzero"></path><path fill="#ffffff" d="M 48.359375 24.09375 C 48.28125 24.09375 48.199219 24.0625 48.140625 24 C 48.019531 23.878906 48.019531 23.683594 48.140625 23.5625 L 49.605469 22.097656 C 49.726562 21.972656 49.925781 21.972656 50.046875 22.097656 C 50.167969 22.21875 50.167969 22.414062 50.046875 22.535156 L 48.578125 24 C 48.519531 24.0625 48.4375 24.09375 48.359375 24.09375 " fill-opacity="1" fill-rule="nonzero"></path><g clip-path="url(#32da6b047b)"><path fill="#ffffff" d="M 46.949219 23.78125 C 46.777344 23.78125 46.636719 23.644531 46.636719 23.46875 L 46.636719 21.398438 C 46.636719 21.226562 46.777344 21.085938 46.949219 21.085938 C 47.121094 21.085938 47.257812 21.226562 47.257812 21.398438 L 47.257812 23.46875 C 47.257812 23.644531 47.121094 23.78125 46.949219 23.78125 " fill-opacity="1" fill-rule="nonzero"></path></g></svg>