<svg xmlns="http://www.w3.org/2000/svg" xmlns:xlink="http://www.w3.org/1999/xlink" width="100" viewBox="0 0 75 74.999997" height="100" preserveAspectRatio="xMidYMid meet"><defs><clipPath id="912a2a135d"><path d="M 22.761719 25 L 29 25 L 29 35 L 22.761719 35 Z M 22.761719 25 " clip-rule="nonzero"></path></clipPath><clipPath id="ba2af512b6"><path d="M 22.761719 25 L 34 25 L 34 29 L 22.761719 29 Z M 22.761719 25 " clip-rule="nonzero"></path></clipPath><clipPath id="d86d831a08"><path d="M 22.761719 22.5 L 34 22.5 L 34 26 L 22.761719 26 Z M 22.761719 22.5 " clip-rule="nonzero"></path></clipPath><clipPath id="72944c71d3"><path d="M 46 25 L 52.011719 25 L 52.011719 35 L 46 35 Z M 46 25 " clip-rule="nonzero"></path></clipPath><clipPath id="a447571627"><path d="M 41 25 L 52.011719 25 L 52.011719 29 L 41 29 Z M 41 25 " clip-rule="nonzero"></path></clipPath><clipPath id="bb040b43b1"><path d="M 41 22.5 L 52.011719 22.5 L 52.011719 26 L 41 26 Z M 41 22.5 " clip-rule="nonzero"></path></clipPath><clipPath id="52641c43f2"><path d="M 22.761719 43 L 29 43 L 29 52.5 L 22.761719 52.5 Z M 22.761719 43 " clip-rule="nonzero"></path></clipPath><clipPath id="ab5f125aa7"><path d="M 27 43 L 34 43 L 34 52.5 L 27 52.5 Z M 27 43 " clip-rule="nonzero"></path></clipPath><clipPath id="b9d0c78f48"><path d="M 22.761719 43 L 34 43 L 34 48 L 22.761719 48 Z M 22.761719 43 " clip-rule="nonzero"></path></clipPath><clipPath id="2ea955b492"><path d="M 22.761719 40 L 34 40 L 34 45 L 22.761719 45 Z M 22.761719 40 " clip-rule="nonzero"></path></clipPath><clipPath id="1e6755d788"><path d="M 41 43 L 48 43 L 48 52.5 L 41 52.5 Z M 41 43 " clip-rule="nonzero"></path></clipPath><clipPath id="de0546fcd5"><path d="M 46 43 L 52.011719 43 L 52.011719 52.5 L 46 52.5 Z M 46 43 " clip-rule="nonzero"></path></clipPath><clipPath id="bd2362a512"><path d="M 41 43 L 52.011719 43 L 52.011719 48 L 41 48 Z M 41 43 " clip-rule="nonzero"></path></clipPath><clipPath id="8d7a9c0e78"><path d="M 41 40 L 52.011719 40 L 52.011719 45 L 41 45 Z M 41 40 " clip-rule="nonzero"></path></clipPath></defs><path stroke-linecap="butt" transform="matrix(0.749992, 0.0033656, -0.0033656, 0.749992, 8.028285, 7.500028)" fill="none" stroke-linejoin="miter" d="M 0.000988894 0.499964 L 24.709567 0.49846 " stroke="#c93438" stroke-width="1" stroke-opacity="1" stroke-miterlimit="4"></path><path stroke-linecap="butt" transform="matrix(0, -0.75, 0.75, 0, 7.646721, 26.030534)" fill="none" stroke-linejoin="miter" d="M -0.000954781 0.502289 L 24.712589 0.502289 " stroke="#c93438" stroke-width="1" stroke-opacity="1" stroke-miterlimit="4"></path><path stroke-linecap="butt" transform="matrix(0.749992, 0.0033656, -0.0033656, 0.749992, 48.966439, 66.666848)" fill="none" stroke-linejoin="miter" d="M 0.000123326 0.501499 L 24.713909 0.499972 " stroke="#c93438" stroke-width="1" stroke-opacity="1" stroke-miterlimit="4"></path><path stroke-linecap="butt" transform="matrix(0, -0.75, 0.75, 0, 66.745119, 67.496799)" fill="none" stroke-linejoin="miter" d="M 0.00094045 0.501299 L 24.709276 0.501299 " stroke="#c93438" stroke-width="1" stroke-opacity="1" stroke-miterlimit="4"></path><g clip-path="url(#912a2a135d)"><path fill="#ffffff" d="M 23.46875 30.871094 L 27.824219 33.300781 L 27.820312 28.550781 L 23.46875 26.121094 Z M 28.125 34.128906 C 28.074219 34.128906 28.027344 34.113281 27.980469 34.089844 L 23.015625 31.316406 C 22.917969 31.261719 22.859375 31.160156 22.859375 31.046875 L 22.855469 25.601562 C 22.855469 25.492188 22.914062 25.390625 23.007812 25.335938 C 23.101562 25.28125 23.214844 25.277344 23.3125 25.332031 L 28.277344 28.105469 C 28.375 28.160156 28.433594 28.261719 28.433594 28.371094 L 28.4375 33.820312 C 28.4375 33.929688 28.378906 34.03125 28.285156 34.085938 C 28.234375 34.113281 28.179688 34.128906 28.125 34.128906 " fill-opacity="1" fill-rule="nonzero"></path></g><path fill="#ffffff" d="M 28.433594 28.550781 L 28.4375 33.300781 L 32.785156 30.863281 L 32.785156 26.117188 Z M 28.125 34.128906 C 28.074219 34.128906 28.023438 34.113281 27.976562 34.085938 C 27.882812 34.03125 27.824219 33.929688 27.824219 33.820312 L 27.820312 28.371094 C 27.820312 28.261719 27.882812 28.160156 27.976562 28.105469 L 32.941406 25.328125 C 33.035156 25.273438 33.152344 25.273438 33.246094 25.332031 C 33.335938 25.386719 33.394531 25.484375 33.394531 25.59375 L 33.398438 31.042969 C 33.398438 31.152344 33.339844 31.257812 33.242188 31.308594 L 28.28125 34.089844 C 28.230469 34.117188 28.179688 34.128906 28.125 34.128906 " fill-opacity="1" fill-rule="nonzero"></path><g clip-path="url(#ba2af512b6)"><path fill="#ffffff" d="M 28.121094 28.679688 C 28.074219 28.679688 28.023438 28.664062 27.976562 28.640625 L 23.011719 25.867188 C 22.867188 25.785156 22.8125 25.597656 22.894531 25.449219 C 22.976562 25.304688 23.164062 25.25 23.3125 25.332031 L 28.128906 28.019531 L 32.941406 25.328125 C 33.089844 25.246094 33.273438 25.296875 33.355469 25.445312 C 33.4375 25.59375 33.386719 25.777344 33.238281 25.859375 L 28.277344 28.640625 C 28.230469 28.667969 28.175781 28.679688 28.121094 28.679688 " fill-opacity="1" fill-rule="nonzero"></path></g><g clip-path="url(#d86d831a08)"><path fill="#ffffff" d="M 23.15625 25.90625 C 23.050781 25.902344 22.949219 25.847656 22.894531 25.75 C 22.8125 25.601562 22.867188 25.414062 23.011719 25.332031 L 27.976562 22.554688 C 28.066406 22.5 28.179688 22.5 28.273438 22.554688 L 33.238281 25.328125 C 33.386719 25.410156 33.4375 25.597656 33.359375 25.742188 C 33.273438 25.890625 33.089844 25.945312 32.941406 25.863281 L 28.125 23.171875 L 23.3125 25.867188 C 23.261719 25.894531 23.210938 25.90625 23.15625 25.90625 " fill-opacity="1" fill-rule="nonzero"></path></g><path fill="#ffffff" d="M 42.1875 30.859375 L 46.539062 33.289062 L 46.539062 28.542969 L 42.183594 26.113281 Z M 46.839844 34.117188 C 46.792969 34.117188 46.742188 34.105469 46.699219 34.078125 L 41.730469 31.304688 C 41.636719 31.253906 41.574219 31.148438 41.574219 31.039062 L 41.570312 25.589844 C 41.570312 25.480469 41.628906 25.382812 41.722656 25.328125 C 41.816406 25.269531 41.933594 25.269531 42.027344 25.324219 L 46.992188 28.097656 C 47.089844 28.148438 47.148438 28.253906 47.148438 28.363281 L 47.152344 33.8125 C 47.152344 33.921875 47.09375 34.019531 47 34.078125 C 46.953125 34.105469 46.898438 34.117188 46.839844 34.117188 " fill-opacity="1" fill-rule="nonzero"></path><g clip-path="url(#72944c71d3)"><path fill="#ffffff" d="M 47.148438 28.542969 L 47.152344 33.289062 L 51.503906 30.855469 L 51.5 26.105469 Z M 46.839844 34.117188 C 46.789062 34.117188 46.738281 34.101562 46.691406 34.078125 C 46.597656 34.023438 46.539062 33.921875 46.539062 33.8125 L 46.539062 28.363281 C 46.539062 28.253906 46.597656 28.152344 46.695312 28.097656 L 51.65625 25.316406 C 51.753906 25.265625 51.867188 25.265625 51.960938 25.320312 C 52.054688 25.375 52.113281 25.476562 52.113281 25.585938 L 52.113281 31.035156 C 52.113281 31.144531 52.054688 31.246094 51.957031 31.300781 L 46.996094 34.078125 C 46.949219 34.105469 46.894531 34.117188 46.839844 34.117188 " fill-opacity="1" fill-rule="nonzero"></path></g><g clip-path="url(#a447571627)"><path fill="#ffffff" d="M 46.839844 28.667969 C 46.789062 28.667969 46.738281 28.65625 46.695312 28.628906 L 41.730469 25.855469 C 41.582031 25.773438 41.527344 25.589844 41.609375 25.441406 C 41.691406 25.292969 41.878906 25.238281 42.027344 25.324219 L 46.84375 28.011719 L 51.65625 25.316406 C 51.804688 25.234375 51.988281 25.289062 52.074219 25.433594 C 52.15625 25.582031 52.101562 25.769531 51.957031 25.851562 L 46.992188 28.628906 C 46.945312 28.65625 46.890625 28.671875 46.839844 28.667969 " fill-opacity="1" fill-rule="nonzero"></path></g><g clip-path="url(#bb040b43b1)"><path fill="#ffffff" d="M 41.875 25.894531 C 41.769531 25.894531 41.667969 25.839844 41.609375 25.738281 C 41.527344 25.59375 41.582031 25.40625 41.726562 25.324219 L 46.691406 22.542969 C 46.785156 22.492188 46.898438 22.492188 46.992188 22.542969 L 51.957031 25.316406 C 52.101562 25.398438 52.15625 25.585938 52.074219 25.734375 C 51.992188 25.882812 51.804688 25.933594 51.65625 25.851562 L 46.839844 23.164062 L 42.027344 25.855469 C 41.980469 25.886719 41.925781 25.898438 41.875 25.894531 " fill-opacity="1" fill-rule="nonzero"></path></g><g clip-path="url(#52641c43f2)"><path fill="#ffffff" d="M 23.480469 49.238281 L 27.832031 51.667969 L 27.832031 46.917969 L 23.476562 44.488281 Z M 28.132812 52.496094 C 28.085938 52.496094 28.035156 52.480469 27.992188 52.457031 L 23.023438 49.683594 C 22.929688 49.628906 22.867188 49.527344 22.867188 49.414062 L 22.867188 43.96875 C 22.867188 43.859375 22.921875 43.757812 23.015625 43.703125 C 23.109375 43.648438 23.226562 43.648438 23.320312 43.699219 L 28.285156 46.472656 C 28.382812 46.527344 28.441406 46.628906 28.441406 46.738281 L 28.445312 52.1875 C 28.445312 52.296875 28.386719 52.398438 28.292969 52.453125 C 28.246094 52.480469 28.191406 52.496094 28.132812 52.496094 " fill-opacity="1" fill-rule="nonzero"></path></g><g clip-path="url(#ab5f125aa7)"><path fill="#ffffff" d="M 28.441406 46.917969 L 28.445312 51.667969 L 32.796875 49.230469 L 32.792969 44.484375 Z M 28.132812 52.496094 C 28.082031 52.496094 28.03125 52.480469 27.984375 52.453125 C 27.890625 52.398438 27.832031 52.296875 27.832031 52.1875 L 27.832031 46.738281 C 27.832031 46.628906 27.890625 46.527344 27.988281 46.472656 L 32.949219 43.695312 C 33.042969 43.640625 33.160156 43.640625 33.253906 43.699219 C 33.347656 43.753906 33.40625 43.851562 33.40625 43.960938 L 33.410156 49.410156 C 33.410156 49.519531 33.347656 49.625 33.25 49.675781 L 28.289062 52.457031 C 28.242188 52.484375 28.1875 52.496094 28.132812 52.496094 " fill-opacity="1" fill-rule="nonzero"></path></g><g clip-path="url(#b9d0c78f48)"><path fill="#ffffff" d="M 28.132812 47.046875 C 28.082031 47.042969 28.03125 47.03125 27.988281 47.007812 L 23.023438 44.234375 C 22.875 44.152344 22.820312 43.964844 22.902344 43.816406 C 22.988281 43.671875 23.171875 43.617188 23.320312 43.699219 L 28.136719 46.386719 L 32.949219 43.695312 C 33.097656 43.609375 33.285156 43.664062 33.367188 43.8125 C 33.449219 43.957031 33.394531 44.144531 33.25 44.226562 L 28.285156 47.007812 C 28.238281 47.035156 28.183594 47.046875 28.132812 47.046875 " fill-opacity="1" fill-rule="nonzero"></path></g><g clip-path="url(#2ea955b492)"><path fill="#ffffff" d="M 23.167969 44.273438 C 23.0625 44.269531 22.960938 44.214844 22.902344 44.117188 C 22.820312 43.96875 22.875 43.78125 23.023438 43.699219 L 27.984375 40.921875 C 28.078125 40.867188 28.191406 40.867188 28.28125 40.921875 L 33.25 43.695312 C 33.394531 43.777344 33.449219 43.964844 33.367188 44.109375 C 33.285156 44.257812 33.097656 44.3125 32.949219 44.226562 L 28.132812 41.539062 L 23.320312 44.234375 C 23.273438 44.261719 23.21875 44.273438 23.167969 44.273438 " fill-opacity="1" fill-rule="nonzero"></path></g><g clip-path="url(#1e6755d788)"><path fill="#ffffff" d="M 42.195312 49.226562 L 46.550781 51.65625 L 46.546875 46.910156 L 42.195312 44.476562 Z M 46.851562 52.484375 C 46.800781 52.484375 46.75 52.472656 46.707031 52.445312 L 41.742188 49.671875 C 41.644531 49.621094 41.585938 49.515625 41.585938 49.40625 L 41.582031 43.957031 C 41.582031 43.847656 41.640625 43.75 41.734375 43.691406 C 41.828125 43.640625 41.941406 43.636719 42.035156 43.691406 L 47 46.464844 C 47.097656 46.515625 47.160156 46.621094 47.160156 46.730469 L 47.164062 52.179688 C 47.160156 52.289062 47.105469 52.386719 47.011719 52.441406 C 46.960938 52.472656 46.90625 52.484375 46.851562 52.484375 " fill-opacity="1" fill-rule="nonzero"></path></g><g clip-path="url(#de0546fcd5)"><path fill="#ffffff" d="M 47.160156 46.910156 L 47.160156 51.65625 L 51.511719 49.222656 L 51.511719 44.472656 Z M 46.851562 52.484375 C 46.796875 52.484375 46.746094 52.46875 46.703125 52.441406 C 46.609375 52.386719 46.550781 52.289062 46.550781 52.179688 L 46.546875 46.730469 C 46.546875 46.621094 46.605469 46.519531 46.703125 46.464844 L 51.664062 43.683594 C 51.761719 43.628906 51.875 43.632812 51.96875 43.6875 C 52.0625 43.742188 52.121094 43.84375 52.121094 43.953125 L 52.125 49.402344 C 52.125 49.511719 52.0625 49.613281 51.96875 49.667969 L 47.003906 52.445312 C 46.957031 52.472656 46.902344 52.484375 46.851562 52.484375 " fill-opacity="1" fill-rule="nonzero"></path></g><g clip-path="url(#bd2362a512)"><path fill="#ffffff" d="M 46.847656 47.035156 C 46.796875 47.035156 46.75 47.023438 46.703125 46.996094 L 41.738281 44.222656 C 41.589844 44.140625 41.539062 43.957031 41.621094 43.808594 C 41.703125 43.660156 41.890625 43.605469 42.035156 43.691406 L 46.851562 46.378906 L 51.664062 43.683594 C 51.8125 43.601562 52 43.65625 52.082031 43.800781 C 52.164062 43.949219 52.113281 44.136719 51.964844 44.21875 L 47.003906 46.996094 C 46.953125 47.023438 46.902344 47.039062 46.847656 47.035156 " fill-opacity="1" fill-rule="nonzero"></path></g><g clip-path="url(#8d7a9c0e78)"><path fill="#ffffff" d="M 41.882812 44.261719 C 41.777344 44.261719 41.675781 44.207031 41.621094 44.105469 C 41.539062 43.960938 41.589844 43.773438 41.738281 43.691406 L 46.699219 40.910156 C 46.792969 40.859375 46.90625 40.859375 47 40.910156 L 51.964844 43.683594 C 52.113281 43.765625 52.164062 43.953125 52.082031 44.101562 C 52 44.25 51.8125 44.300781 51.667969 44.21875 L 46.851562 41.527344 L 42.035156 44.222656 C 41.988281 44.25 41.933594 44.265625 41.882812 44.261719 " fill-opacity="1" fill-rule="nonzero"></path></g><path fill="#ffffff" d="M 35.199219 28.121094 C 35.03125 28.117188 34.898438 27.980469 34.898438 27.8125 C 34.898438 27.644531 35.035156 27.507812 35.203125 27.507812 L 39.429688 27.507812 C 39.589844 27.519531 39.734375 27.644531 39.734375 27.8125 C 39.734375 27.980469 39.597656 28.117188 39.429688 28.117188 L 35.203125 28.121094 C 35.203125 28.121094 35.199219 28.121094 35.199219 28.121094 " fill-opacity="1" fill-rule="nonzero"></path><path fill="#ffffff" d="M 35.207031 47.042969 C 35.042969 47.039062 34.90625 46.902344 34.90625 46.734375 C 34.90625 46.566406 35.042969 46.429688 35.214844 46.429688 L 39.4375 46.429688 C 39.597656 46.417969 39.746094 46.566406 39.746094 46.734375 C 39.746094 46.902344 39.605469 47.039062 39.4375 47.039062 L 35.214844 47.042969 C 35.210938 47.042969 35.210938 47.042969 35.207031 47.042969 " fill-opacity="1" fill-rule="nonzero"></path><path fill="#ffffff" d="M 46.84375 40.042969 C 46.675781 40.042969 46.542969 39.90625 46.542969 39.738281 L 46.542969 35.511719 C 46.542969 35.34375 46.679688 35.207031 46.847656 35.207031 C 47.003906 35.195312 47.152344 35.34375 47.152344 35.511719 L 47.15625 39.738281 C 47.15625 39.90625 47.019531 40.042969 46.847656 40.042969 C 46.847656 40.042969 46.847656 40.042969 46.84375 40.042969 " fill-opacity="1" fill-rule="nonzero"></path><path fill="#ffffff" d="M 27.734375 40.054688 C 27.570312 40.050781 27.433594 39.914062 27.433594 39.746094 L 27.433594 35.523438 C 27.433594 35.355469 27.570312 35.214844 27.738281 35.214844 C 27.90625 35.222656 28.042969 35.351562 28.042969 35.523438 L 28.046875 39.746094 C 28.046875 39.917969 27.910156 40.054688 27.742188 40.054688 C 27.738281 40.054688 27.738281 40.054688 27.734375 40.054688 " fill-opacity="1" fill-rule="nonzero"></path></svg>