<svg xmlns="http://www.w3.org/2000/svg" xmlns:xlink="http://www.w3.org/1999/xlink" width="100" viewBox="0 0 75 74.999997" height="100" preserveAspectRatio="xMidYMid meet"><defs><clipPath id="e011c8686c"><path d="M 20.417969 23.640625 L 54.917969 23.640625 L 54.917969 51.390625 L 20.417969 51.390625 Z M 20.417969 23.640625 " clip-rule="nonzero"></path></clipPath></defs><path stroke-linecap="butt" transform="matrix(0.749992, 0.0033656, -0.0033656, 0.749992, 8.028285, 7.500028)" fill="none" stroke-linejoin="miter" d="M 0.000988894 0.499964 L 24.709567 0.49846 " stroke="#c93438" stroke-width="1" stroke-opacity="1" stroke-miterlimit="4"></path><path stroke-linecap="butt" transform="matrix(0, -0.75, 0.75, 0, 7.646721, 26.030534)" fill="none" stroke-linejoin="miter" d="M -0.000954781 0.502289 L 24.712589 0.502289 " stroke="#c93438" stroke-width="1" stroke-opacity="1" stroke-miterlimit="4"></path><path stroke-linecap="butt" transform="matrix(0.749992, 0.0033656, -0.0033656, 0.749992, 48.966439, 66.666848)" fill="none" stroke-linejoin="miter" d="M 0.000123326 0.501499 L 24.713909 0.499972 " stroke="#c93438" stroke-width="1" stroke-opacity="1" stroke-miterlimit="4"></path><path stroke-linecap="butt" transform="matrix(0, -0.75, 0.75, 0, 66.745119, 67.496799)" fill="none" stroke-linejoin="miter" d="M 0.00094045 0.501299 L 24.709276 0.501299 " stroke="#c93438" stroke-width="1" stroke-opacity="1" stroke-miterlimit="4"></path><g clip-path="url(#e011c8686c)"><path fill="#ffffff" d="M 54.554688 27.15625 C 54.5625 25.269531 53.039062 23.722656 51.152344 23.707031 L 41.808594 23.652344 C 40.886719 23.644531 40.03125 23.992188 39.382812 24.636719 C 38.730469 25.277344 38.367188 26.136719 38.363281 27.054688 L 38.324219 32.839844 L 36.707031 32.851562 L 36.746094 27.261719 C 36.757812 25.371094 35.230469 23.824219 33.339844 23.8125 L 23.996094 23.75 C 23.988281 23.75 23.980469 23.75 23.976562 23.75 C 22.054688 23.75 20.429688 25.28125 20.417969 27.105469 L 20.417969 47.835938 C 20.410156 48.75 20.761719 49.613281 21.40625 50.265625 C 22.050781 50.917969 22.910156 51.28125 23.820312 51.285156 L 33.160156 51.347656 C 33.167969 51.347656 33.175781 51.347656 33.183594 51.347656 C 35.0625 51.347656 36.597656 49.824219 36.609375 47.941406 L 36.65625 40.660156 C 36.65625 40.648438 36.65625 40.640625 36.65625 40.632812 C 36.871094 40.398438 37.082031 40.136719 37.28125 39.84375 L 37.328125 39.777344 C 37.601562 40.175781 37.921875 40.519531 38.277344 40.816406 C 38.277344 40.820312 38.277344 40.820312 38.277344 40.820312 L 38.230469 47.738281 C 38.222656 48.652344 38.574219 49.515625 39.214844 50.167969 C 39.855469 50.820312 40.714844 51.179688 41.632812 51.1875 L 50.976562 51.246094 C 50.984375 51.246094 50.988281 51.246094 50.996094 51.246094 C 52.914062 51.246094 54.539062 49.699219 54.554688 47.851562 Z M 33.183594 50.78125 C 33.179688 50.78125 33.171875 50.78125 33.167969 50.78125 L 23.828125 50.722656 C 23.066406 50.71875 22.347656 50.414062 21.808594 49.871094 C 21.273438 49.324219 20.980469 48.605469 20.984375 47.839844 L 20.984375 27.109375 C 20.992188 25.589844 22.359375 24.316406 23.976562 24.316406 C 23.980469 24.316406 23.988281 24.316406 23.992188 24.316406 L 33.335938 24.375 C 34.914062 24.386719 36.191406 25.679688 36.179688 27.253906 L 36.144531 32.855469 L 32.585938 32.878906 C 31.347656 32.886719 30.191406 33.375 29.320312 34.257812 C 28.386719 35.203125 27.902344 36.511719 27.996094 37.84375 C 28.164062 40.273438 30.304688 42.238281 32.777344 42.238281 C 32.785156 42.238281 32.796875 42.238281 32.808594 42.238281 C 33.515625 42.234375 34.207031 42.113281 34.871094 41.871094 C 35.296875 41.71875 35.703125 41.480469 36.089844 41.167969 L 36.042969 47.9375 C 36.035156 49.511719 34.753906 50.78125 33.183594 50.78125 Z M 37.675781 39.273438 L 37.648438 39.234375 L 37.609375 39.203125 C 37.441406 39.070312 37.214844 39.074219 37.046875 39.207031 L 37.015625 39.234375 L 36.820312 39.519531 C 36.179688 40.449219 35.460938 41.0625 34.683594 41.34375 C 34.078125 41.558594 33.449219 41.671875 32.804688 41.675781 C 32.796875 41.675781 32.785156 41.675781 32.78125 41.675781 C 30.601562 41.675781 28.710938 39.945312 28.5625 37.804688 C 28.480469 36.632812 28.90625 35.488281 29.726562 34.65625 C 30.488281 33.882812 31.507812 33.453125 32.59375 33.445312 L 36.402344 33.421875 C 36.410156 33.421875 36.414062 33.421875 36.421875 33.421875 C 36.421875 33.421875 36.425781 33.421875 36.425781 33.421875 C 36.433594 33.421875 36.441406 33.421875 36.453125 33.421875 L 38.601562 33.40625 C 38.601562 33.40625 38.601562 33.40625 38.605469 33.40625 C 38.609375 33.40625 38.609375 33.40625 38.613281 33.40625 L 41.878906 33.386719 C 41.890625 33.386719 41.898438 33.386719 41.90625 33.386719 C 44.15625 33.386719 46.066406 35.230469 46.085938 37.425781 C 46.097656 38.59375 45.730469 39.59375 45.019531 40.308594 C 44.257812 41.085938 43.238281 41.515625 42.148438 41.519531 C 41.335938 41.527344 40.542969 41.375 39.789062 41.074219 C 38.933594 40.734375 38.203125 40.113281 37.675781 39.273438 Z M 50.996094 50.683594 C 50.992188 50.683594 50.984375 50.683594 50.980469 50.683594 L 41.636719 50.621094 C 40.871094 50.617188 40.152344 50.316406 39.617188 49.769531 C 39.082031 49.226562 38.789062 48.507812 38.792969 47.746094 L 38.835938 41.222656 C 39.074219 41.371094 39.320312 41.496094 39.578125 41.601562 C 40.402344 41.929688 41.273438 42.09375 42.152344 42.085938 C 43.390625 42.078125 44.550781 41.585938 45.421875 40.707031 C 46.238281 39.878906 46.664062 38.742188 46.652344 37.417969 C 46.628906 34.910156 44.4375 32.804688 41.875 32.820312 L 38.890625 32.835938 L 38.925781 27.058594 C 38.929688 26.292969 39.234375 25.574219 39.777344 25.039062 C 40.324219 24.503906 41.035156 24.210938 41.808594 24.214844 L 51.148438 24.273438 C 52.726562 24.285156 53.996094 25.578125 53.988281 27.15625 L 53.988281 47.847656 C 53.976562 49.386719 52.609375 50.683594 50.996094 50.683594 Z M 50.996094 50.683594 " fill-opacity="1" fill-rule="nonzero"></path></g><path fill="#ffffff" d="M 33.558594 28.613281 L 23.027344 28.546875 C 22.871094 28.546875 22.746094 28.417969 22.746094 28.261719 C 22.75 28.105469 22.875 27.980469 23.027344 27.980469 C 23.027344 27.980469 23.03125 27.980469 23.03125 27.980469 L 33.5625 28.046875 C 33.71875 28.046875 33.847656 28.175781 33.84375 28.332031 C 33.84375 28.488281 33.714844 28.613281 33.558594 28.613281 Z M 24.648438 31.585938 C 24.492188 31.585938 24.367188 31.710938 24.363281 31.867188 C 24.363281 32.023438 24.488281 32.148438 24.644531 32.148438 L 33.855469 32.210938 C 33.855469 32.210938 33.859375 32.210938 33.859375 32.210938 C 34.011719 32.210938 34.140625 32.085938 34.140625 31.929688 C 34.144531 31.773438 34.015625 31.648438 33.859375 31.644531 Z M 27.578125 36.328125 C 27.734375 36.328125 27.859375 36.203125 27.863281 36.046875 C 27.863281 35.890625 27.738281 35.765625 27.582031 35.765625 L 23.433594 35.730469 C 23.433594 35.730469 23.429688 35.730469 23.429688 35.730469 C 23.277344 35.730469 23.148438 35.855469 23.148438 36.011719 C 23.144531 36.167969 23.273438 36.296875 23.429688 36.296875 Z M 23.78125 39.566406 C 23.625 39.566406 23.5 39.691406 23.496094 39.847656 C 23.496094 40.003906 23.621094 40.132812 23.777344 40.132812 L 27.953125 40.164062 C 28.109375 40.164062 28.234375 40.039062 28.238281 39.882812 C 28.238281 39.726562 28.113281 39.601562 27.957031 39.601562 Z M 24.570312 43.753906 C 24.414062 43.753906 24.289062 43.878906 24.289062 44.035156 C 24.285156 44.191406 24.410156 44.316406 24.566406 44.316406 L 33.78125 44.378906 C 33.9375 44.378906 34.0625 44.253906 34.066406 44.097656 C 34.066406 43.941406 33.941406 43.816406 33.785156 43.8125 Z M 34.992188 47.085938 L 23.398438 47.011719 C 23.242188 47.011719 23.117188 47.136719 23.117188 47.292969 C 23.113281 47.449219 23.238281 47.574219 23.394531 47.574219 L 34.988281 47.652344 C 34.988281 47.652344 34.992188 47.652344 34.992188 47.652344 C 35.144531 47.652344 35.273438 47.523438 35.273438 47.371094 C 35.273438 47.214844 35.148438 47.085938 34.992188 47.085938 Z M 34.992188 47.085938 " fill-opacity="1" fill-rule="nonzero"></path><path fill="#ffffff" d="M 51.523438 28.464844 L 40.992188 28.398438 C 40.835938 28.398438 40.710938 28.269531 40.710938 28.113281 C 40.714844 27.957031 40.839844 27.832031 40.996094 27.832031 L 51.527344 27.902344 C 51.683594 27.902344 51.8125 28.027344 51.808594 28.1875 C 51.808594 28.339844 51.679688 28.464844 51.523438 28.464844 Z M 51.828125 32.0625 C 51.980469 32.0625 52.105469 31.933594 52.109375 31.78125 C 52.109375 31.625 51.984375 31.496094 51.828125 31.496094 L 42.617188 31.4375 C 42.617188 31.4375 42.613281 31.4375 42.613281 31.4375 C 42.460938 31.4375 42.335938 31.5625 42.332031 31.714844 C 42.332031 31.871094 42.457031 32 42.613281 32 L 51.828125 32.0625 C 51.824219 32.0625 51.824219 32.0625 51.828125 32.0625 Z M 52.992188 35.660156 L 47.011719 35.613281 C 47.011719 35.613281 47.007812 35.613281 47.007812 35.613281 C 46.855469 35.613281 46.726562 35.738281 46.726562 35.894531 C 46.722656 36.050781 46.851562 36.179688 47.007812 36.179688 L 52.988281 36.226562 C 52.988281 36.226562 52.992188 36.226562 52.992188 36.226562 C 53.144531 36.226562 53.273438 36.101562 53.273438 35.945312 C 53.273438 35.789062 53.148438 35.660156 52.992188 35.660156 Z M 46.820312 40.015625 L 52.277344 40.054688 C 52.433594 40.054688 52.558594 39.929688 52.5625 39.773438 C 52.5625 39.617188 52.4375 39.492188 52.28125 39.492188 L 46.824219 39.449219 C 46.824219 39.449219 46.820312 39.449219 46.820312 39.449219 C 46.667969 39.449219 46.542969 39.574219 46.539062 39.730469 C 46.539062 39.886719 46.664062 40.011719 46.820312 40.015625 Z M 42.535156 44.171875 L 51.746094 44.230469 C 51.902344 44.230469 52.027344 44.105469 52.03125 43.949219 C 52.03125 43.792969 51.90625 43.667969 51.75 43.667969 L 42.539062 43.605469 C 42.539062 43.605469 42.535156 43.605469 42.535156 43.605469 C 42.382812 43.605469 42.253906 43.730469 42.253906 43.886719 C 42.25 44.042969 42.378906 44.167969 42.535156 44.171875 Z M 52.960938 46.9375 L 41.367188 46.863281 C 41.367188 46.863281 41.363281 46.863281 41.363281 46.863281 C 41.210938 46.863281 41.082031 46.988281 41.082031 47.140625 C 41.078125 47.296875 41.207031 47.425781 41.363281 47.425781 L 52.957031 47.503906 C 53.113281 47.503906 53.238281 47.375 53.238281 47.222656 C 53.242188 47.066406 53.117188 46.9375 52.960938 46.9375 Z M 52.960938 46.9375 " fill-opacity="1" fill-rule="nonzero"></path><path fill="#ffffff" d="M 35.628906 37.546875 C 35.628906 37.703125 35.503906 37.828125 35.347656 37.828125 L 33.066406 37.8125 L 33.066406 40.089844 C 33.066406 40.25 32.941406 40.375 32.785156 40.375 C 32.628906 40.375 32.503906 40.25 32.503906 40.089844 L 32.503906 37.8125 L 30.222656 37.796875 C 30.066406 37.796875 29.941406 37.671875 29.941406 37.515625 C 29.941406 37.359375 30.070312 37.234375 30.222656 37.234375 C 30.222656 37.234375 30.226562 37.234375 30.226562 37.234375 L 32.503906 37.246094 L 32.503906 34.96875 C 32.503906 34.808594 32.628906 34.683594 32.785156 34.683594 C 32.945312 34.683594 33.070312 34.808594 33.070312 34.96875 L 33.070312 37.25 L 35.347656 37.261719 C 35.503906 37.261719 35.628906 37.390625 35.628906 37.546875 Z M 39.621094 37.816406 C 39.46875 37.605469 39.40625 37.347656 39.449219 37.089844 C 39.492188 36.832031 39.628906 36.609375 39.839844 36.453125 C 40.050781 36.300781 40.308594 36.242188 40.566406 36.28125 C 40.824219 36.320312 41.050781 36.460938 41.203125 36.671875 C 41.519531 37.105469 41.421875 37.71875 40.984375 38.035156 C 40.816406 38.15625 40.621094 38.222656 40.414062 38.222656 C 40.363281 38.222656 40.308594 38.21875 40.257812 38.207031 C 40 38.164062 39.777344 38.027344 39.621094 37.816406 Z M 40.082031 37.484375 C 40.144531 37.574219 40.242188 37.632812 40.347656 37.648438 C 40.457031 37.664062 40.566406 37.636719 40.652344 37.574219 C 40.835938 37.441406 40.878906 37.183594 40.746094 37 C 40.683594 36.914062 40.585938 36.855469 40.476562 36.835938 C 40.457031 36.835938 40.433594 36.832031 40.414062 36.832031 C 40.324219 36.832031 40.242188 36.859375 40.171875 36.910156 C 40.085938 36.972656 40.027344 37.070312 40.007812 37.175781 C 39.992188 37.285156 40.015625 37.394531 40.082031 37.484375 Z M 41.894531 36.171875 C 41.582031 35.734375 41.675781 35.125 42.113281 34.808594 C 42.324219 34.65625 42.582031 34.59375 42.839844 34.636719 C 43.097656 34.675781 43.324219 34.816406 43.476562 35.027344 C 43.628906 35.238281 43.691406 35.496094 43.652344 35.753906 C 43.609375 36.011719 43.46875 36.238281 43.257812 36.390625 C 43.085938 36.515625 42.886719 36.574219 42.6875 36.574219 C 42.382812 36.574219 42.085938 36.433594 41.894531 36.171875 Z M 42.351562 35.839844 C 42.417969 35.929688 42.511719 35.984375 42.621094 36.003906 C 42.726562 36.019531 42.835938 35.996094 42.925781 35.929688 C 43.015625 35.867188 43.074219 35.769531 43.089844 35.660156 C 43.105469 35.554688 43.082031 35.445312 43.015625 35.355469 C 42.953125 35.269531 42.855469 35.210938 42.75 35.191406 C 42.726562 35.1875 42.707031 35.1875 42.683594 35.1875 C 42.597656 35.1875 42.511719 35.214844 42.445312 35.265625 C 42.261719 35.398438 42.21875 35.65625 42.351562 35.839844 Z M 43.71875 37.027344 C 43.929688 36.875 44.1875 36.8125 44.445312 36.851562 C 44.703125 36.894531 44.929688 37.035156 45.082031 37.246094 C 45.234375 37.457031 45.296875 37.714844 45.257812 37.972656 C 45.214844 38.230469 45.074219 38.453125 44.863281 38.609375 C 44.691406 38.734375 44.492188 38.792969 44.292969 38.792969 C 43.992188 38.792969 43.691406 38.652344 43.503906 38.390625 C 43.1875 37.953125 43.285156 37.339844 43.71875 37.027344 Z M 43.957031 38.058594 C 44.09375 38.238281 44.347656 38.28125 44.53125 38.148438 C 44.621094 38.085938 44.679688 37.992188 44.695312 37.882812 C 44.710938 37.773438 44.6875 37.664062 44.621094 37.578125 C 44.558594 37.488281 44.460938 37.429688 44.355469 37.414062 C 44.332031 37.410156 44.3125 37.40625 44.289062 37.40625 C 44.203125 37.40625 44.117188 37.433594 44.046875 37.484375 C 43.867188 37.617188 43.828125 37.875 43.957031 38.058594 Z M 41.449219 38.671875 C 41.660156 38.519531 41.917969 38.457031 42.175781 38.496094 C 42.433594 38.539062 42.65625 38.679688 42.8125 38.890625 C 43.125 39.324219 43.027344 39.9375 42.59375 40.25 C 42.425781 40.375 42.226562 40.4375 42.019531 40.4375 C 41.96875 40.4375 41.917969 40.433594 41.863281 40.425781 C 41.605469 40.382812 41.382812 40.246094 41.226562 40.035156 C 41.074219 39.824219 41.011719 39.5625 41.054688 39.308594 C 41.097656 39.050781 41.238281 38.824219 41.449219 38.671875 Z M 41.6875 39.703125 C 41.75 39.789062 41.847656 39.847656 41.957031 39.867188 C 42.0625 39.882812 42.171875 39.855469 42.261719 39.792969 C 42.445312 39.660156 42.484375 39.402344 42.351562 39.21875 C 42.289062 39.128906 42.191406 39.074219 42.085938 39.054688 C 42.0625 39.050781 42.042969 39.050781 42.019531 39.050781 C 41.933594 39.050781 41.851562 39.078125 41.78125 39.128906 C 41.691406 39.191406 41.632812 39.289062 41.617188 39.394531 C 41.597656 39.503906 41.625 39.613281 41.6875 39.703125 Z M 41.6875 39.703125 " fill-opacity="1" fill-rule="nonzero"></path></svg>