<svg width="1554" height="1555" viewBox="0 0 1554 1555" fill="none" xmlns="http://www.w3.org/2000/svg">
<path d="M1193.44 595.251H1440.34C1440.34 595.251 1418.51 555.519 1354.95 561.303C1294.26 566.825 1291.17 541.756 1260.31 538.67C1229.45 535.584 1203.73 559.245 1193.44 595.251Z" fill="#F5F5F5"/>
<path d="M132.813 460.808H379.71C379.71 460.808 357.876 421.076 294.324 426.86C233.628 432.383 230.541 407.314 199.679 404.227C168.82 401.141 143.101 424.802 132.813 460.808Z" fill="#F5F5F5"/>
<path d="M578.386 276.7H889.975C889.975 276.7 862.423 226.558 782.218 233.856C705.618 240.827 701.724 209.188 662.774 205.294C623.825 201.399 591.368 231.261 578.386 276.7Z" fill="#E0E0E0"/>
<path d="M1315.52 1396.7C1273.07 1369.67 1261.43 1316.62 1261 1268.5C1260.93 1260.47 1259.69 1252.06 1263.2 1244.86C1266.72 1237.66 1275.41 1232.47 1282.74 1235.54C1288.81 1238.09 1291.71 1244.9 1295.28 1250.49C1300.04 1257.92 1306.92 1263.95 1314.86 1267.65C1320.09 1270.08 1326.47 1271.43 1331.4 1268.44C1338.15 1264.32 1338.56 1254.73 1338.16 1246.75C1337.43 1231.89 1336.71 1217.03 1335.98 1202.17C1335.59 1194.19 1335.21 1186.05 1337.37 1178.37C1339.53 1170.7 1344.71 1163.43 1352.2 1160.98C1359.7 1158.53 1369.27 1162.5 1371.21 1170.24C1372.01 1173.46 1371.5 1176.86 1371.86 1180.16C1372.23 1183.47 1373.93 1187.06 1377.11 1187.85C1380.33 1188.65 1383.43 1186.25 1385.71 1183.81C1393.6 1175.4 1398.74 1164.79 1403.52 1154.25C1408.3 1143.71 1412.92 1132.93 1420.01 1123.82C1427.1 1114.71 1437.14 1107.31 1448.53 1106.18C1459.93 1105.04 1472.4 1111.57 1475.77 1122.66C1479.15 1133.78 1473.08 1145.47 1466.33 1154.88C1456.31 1168.84 1444.29 1181.32 1430.77 1191.81C1428.33 1193.7 1425.69 1195.75 1424.85 1198.74C1423.35 1204.13 1428.61 1209.2 1433.94 1210.72C1439.97 1212.45 1446.39 1211.56 1452.65 1212.02C1458.9 1212.49 1465.75 1214.94 1468.36 1220.72C1471.97 1228.73 1465.52 1237.57 1459.05 1243.46C1446.1 1255.24 1431.13 1264.75 1415.03 1271.45C1409.25 1273.85 1403.16 1276 1398.6 1280.32C1394.04 1284.65 1391.5 1291.94 1394.6 1297.43C1397.7 1302.94 1405.11 1304.42 1411.21 1303.02C1417.3 1301.61 1422.67 1298.04 1428.43 1295.58C1439.21 1290.98 1453.4 1291.12 1460.83 1300.3C1465.71 1306.33 1466.49 1314.98 1464.47 1322.5C1462.46 1330.03 1458 1336.62 1453.22 1342.74C1436.54 1364.1 1414.76 1381.66 1389.7 1391.57C1364.65 1401.46 1341.19 1404.86 1315.52 1396.7Z" fill="#C93438"/>
<path d="M1316.42 1432.35C1317.34 1413.24 1320.56 1390.59 1326.63 1366.05C1332.67 1341.5 1341.51 1315.14 1351.71 1287.88C1354.28 1281.08 1356.83 1274.36 1359.33 1267.73C1361.85 1261.12 1364.35 1254.57 1367.19 1248.31C1372.81 1235.76 1379.17 1224.13 1385.56 1213.28C1391.94 1202.42 1398.39 1192.34 1404.49 1182.97C1410.62 1173.6 1416.49 1164.98 1422.17 1157.35C1433.51 1142.05 1444.09 1130.8 1451.67 1123.38C1455.45 1119.66 1458.48 1116.87 1460.55 1115C1461.56 1114.11 1462.34 1113.42 1462.93 1112.89C1463.47 1112.43 1463.76 1112.2 1463.77 1112.22C1463.79 1112.23 1463.54 1112.5 1463.04 1113.01C1462.47 1113.56 1461.71 1114.29 1460.76 1115.22C1458.75 1117.16 1455.78 1120.01 1452.07 1123.8C1444.62 1131.33 1434.2 1142.65 1423.01 1157.99C1417.39 1165.64 1411.58 1174.27 1405.51 1183.65C1399.46 1193.05 1393.05 1203.13 1386.72 1213.98C1380.38 1224.83 1374.07 1236.43 1368.5 1248.91C1365.68 1255.14 1363.22 1261.64 1360.69 1268.27C1358.19 1274.89 1355.65 1281.61 1353.08 1288.41C1342.89 1315.65 1334.03 1341.93 1327.94 1366.39C1321.81 1390.83 1318.51 1413.38 1317.45 1432.41" fill="#263238"/>
<path d="M1367.61 1248.23C1367.51 1248.25 1367.19 1247.05 1366.68 1244.87C1366.17 1242.68 1365.53 1239.49 1364.8 1235.54C1363.33 1227.65 1361.68 1216.68 1359.9 1204.58C1358.12 1192.47 1356.31 1181.56 1354.73 1173.71C1353.95 1169.78 1353.28 1166.61 1352.79 1164.42C1352.32 1162.23 1352.1 1161.01 1352.2 1160.98C1352.3 1160.95 1352.7 1162.12 1353.35 1164.28C1354.01 1166.43 1354.83 1169.57 1355.74 1173.48C1357.59 1181.3 1359.57 1192.24 1361.35 1204.36C1363.07 1216.31 1364.63 1227.11 1365.82 1235.37C1366.39 1239.1 1366.86 1242.24 1367.24 1244.76C1367.57 1246.98 1367.71 1248.22 1367.61 1248.23Z" fill="#263238"/>
<path d="M1469.34 1224.68C1469.35 1224.78 1467.9 1225.01 1465.27 1225.34C1462.65 1225.69 1458.85 1226.17 1454.18 1226.92C1444.83 1228.33 1431.99 1230.74 1417.93 1234.02C1403.87 1237.32 1391.28 1240.85 1382.25 1243.67C1377.72 1245.05 1374.08 1246.26 1371.56 1247.08C1369.05 1247.92 1367.64 1248.33 1367.6 1248.24C1367.57 1248.14 1368.91 1247.54 1371.37 1246.54C1373.84 1245.55 1377.43 1244.18 1381.93 1242.67C1390.91 1239.59 1403.5 1235.88 1417.6 1232.57C1431.69 1229.28 1444.62 1227.03 1454.04 1225.88C1458.74 1225.26 1462.57 1224.94 1465.21 1224.77C1467.86 1224.61 1469.33 1224.57 1469.34 1224.68Z" fill="#263238"/>
<path d="M1327.82 1364.11C1327.77 1364.13 1327.51 1363.71 1327.06 1362.89C1326.54 1361.91 1325.91 1360.71 1325.15 1359.25C1323.5 1356.09 1321.24 1351.45 1318.52 1345.68C1313.06 1334.14 1306.04 1317.97 1298.52 1300.02C1291 1282.06 1284.14 1265.84 1278.93 1254.21C1276.38 1248.55 1274.29 1243.9 1272.73 1240.45C1272.06 1238.94 1271.52 1237.71 1271.07 1236.69C1270.7 1235.83 1270.53 1235.36 1270.58 1235.34C1270.62 1235.31 1270.88 1235.73 1271.33 1236.56C1271.85 1237.54 1272.48 1238.74 1273.25 1240.19C1274.89 1243.36 1277.15 1248 1279.88 1253.77C1285.33 1265.31 1292.36 1281.48 1299.87 1299.44C1307.39 1317.39 1314.26 1333.6 1319.46 1345.24C1322.01 1350.89 1324.1 1355.55 1325.66 1359C1326.33 1360.5 1326.88 1361.74 1327.33 1362.75C1327.69 1363.62 1327.86 1364.09 1327.82 1364.11Z" fill="#263238"/>
<path d="M1462.21 1314.35C1462.23 1314.4 1461.77 1314.61 1460.88 1314.97C1459.83 1315.37 1458.54 1315.86 1456.98 1316.46C1453.38 1317.8 1448.51 1319.62 1442.59 1321.82C1430.44 1326.34 1413.73 1332.78 1395.28 1339.92C1376.82 1347.07 1360.03 1353.36 1347.78 1357.64C1341.66 1359.77 1336.69 1361.46 1333.23 1362.55C1331.63 1363.04 1330.31 1363.45 1329.24 1363.78C1328.32 1364.05 1327.83 1364.16 1327.82 1364.11C1327.8 1364.06 1328.26 1363.85 1329.14 1363.49C1330.19 1363.09 1331.48 1362.6 1333.04 1362C1336.65 1360.66 1341.51 1358.85 1347.43 1356.65C1359.58 1352.13 1376.29 1345.68 1394.75 1338.54C1413.21 1331.39 1429.99 1325.1 1442.24 1320.83C1448.36 1318.69 1453.34 1317.01 1456.8 1315.92C1458.4 1315.42 1459.71 1315.02 1460.79 1314.68C1461.71 1314.42 1462.2 1314.3 1462.21 1314.35Z" fill="#263238"/>
<path d="M68.2144 1335.95C75.4249 1334.02 83.3099 1335.84 89.6565 1339.77C96.0061 1343.7 100.96 1349.56 104.917 1355.9C112.572 1368.14 115.201 1384.56 115.459 1399.01C99.4342 1398.27 85.8088 1385.59 79.3006 1378.72C69.0162 1367.87 57.0131 1342.01 68.2144 1335.95Z" fill="#C93438"/>
<path d="M141.2 1408.81C134.639 1403.67 131.745 1394.6 133.168 1386.38C134.592 1378.16 139.944 1370.91 146.85 1366.23C150.045 1364.07 153.995 1362.36 157.687 1363.47C161.14 1364.51 163.527 1367.89 164.208 1371.43C164.889 1374.97 164.112 1378.64 162.912 1382.04C158.8 1393.7 152.68 1404.23 141.2 1408.81Z" fill="#C93438"/>
<path d="M155.761 1454.53C155.661 1454.58 155.095 1453.65 154.166 1451.94C153.237 1450.23 151.938 1447.73 150.427 1444.59C147.453 1438.32 143.45 1429.4 141.548 1418.8C139.652 1408.19 141.035 1398.19 143.705 1391.67C145.007 1388.39 146.458 1385.91 147.624 1384.33C148.78 1382.74 149.545 1381.97 149.619 1382.03C149.896 1382.21 147.039 1385.55 144.78 1392.06C142.458 1398.5 141.299 1408.18 143.142 1418.52C144.998 1428.87 148.771 1437.75 151.471 1444.12C154.225 1450.48 155.978 1454.42 155.761 1454.53Z" fill="#263238"/>
<path d="M79.0924 1354.84C79.1763 1354.76 80.4102 1356.05 82.5671 1358.44C84.7272 1360.83 87.7948 1364.33 91.5368 1368.7C99.024 1377.45 109.168 1389.69 120.037 1403.49C130.906 1417.29 140.432 1430.03 147.176 1439.35C150.548 1444.02 153.237 1447.82 155.052 1450.48C156.87 1453.14 157.83 1454.63 157.74 1454.7C157.65 1454.76 156.516 1453.39 154.542 1450.85C152.413 1448.07 149.622 1444.43 146.256 1440.04C139.285 1430.89 129.622 1418.28 118.766 1404.49C107.91 1390.71 97.9175 1378.36 90.6572 1369.44C87.1763 1365.14 84.289 1361.57 82.0885 1358.85C80.0776 1356.33 79.0054 1354.91 79.0924 1354.84Z" fill="#263238"/>
<path d="M130.377 1426.62C116.649 1415.63 97.4265 1411.9 80.5842 1416.97C76.2952 1418.26 71.5461 1420.87 71.1141 1425.33C70.6821 1429.79 74.8686 1433.29 78.8872 1435.28C95.6021 1443.58 117.315 1440.42 130.962 1427.69" fill="#C93438"/>
<path d="M91.2322 1425.13C91.2074 1425.02 92.1957 1424.73 94.017 1424.29C94.9245 1424.06 96.0465 1423.82 97.3705 1423.67C98.6914 1423.51 100.193 1423.24 101.871 1423.21C105.221 1422.97 109.237 1423.13 113.644 1423.73C118.036 1424.42 122.806 1425.6 127.599 1427.45C132.367 1429.37 136.656 1431.78 140.329 1434.29C143.95 1436.87 146.993 1439.5 149.268 1441.97C150.477 1443.13 151.384 1444.36 152.239 1445.38C153.106 1446.39 153.759 1447.33 154.259 1448.13C155.291 1449.69 155.813 1450.58 155.72 1450.64C155.462 1450.82 153.175 1447.37 148.457 1442.77C146.12 1440.45 143.071 1437.97 139.487 1435.52C135.854 1433.14 131.655 1430.84 127.002 1428.96C122.328 1427.15 117.691 1425.96 113.414 1425.2C109.122 1424.54 105.203 1424.27 101.911 1424.36C95.3255 1424.48 91.2944 1425.44 91.2322 1425.13Z" fill="#263238"/>
<path d="M250.203 772.368C630.827 693.53 821.506 608.431 1095.11 336.969L1040.89 260.45L1316.88 235.632L1192.42 459.079L1134.54 386.672C868.343 669.847 670.676 757.875 278.421 856.897L250.203 772.368Z" fill="#C93438"/>
<path d="M396.749 1081.79H202.135V1456.67H396.749V1081.79Z" fill="#AEAEAE"/>
<path d="M343.704 1081.79H149.091V1456.67H343.704V1081.79Z" fill="white"/>
<path d="M700.441 956.738H505.827V1456.67H700.441V956.738Z" fill="#AEAEAE"/>
<path d="M641.647 956.738H447.033V1456.67H641.647V956.738Z" fill="white"/>
<path d="M1012.81 798.354H818.2V1456.67H1012.81V798.354Z" fill="#AEAEAE"/>
<path d="M954.352 798.354H759.738V1456.67H954.352V798.354Z" fill="white"/>
<path d="M1326.51 659.647H1131.9V1456.67H1326.51V659.647Z" fill="#AEAEAE"/>
<path d="M1248.99 659.647H1054.38V1456.67H1248.99V659.647Z" fill="white"/>
</svg>
