<svg width="429" height="454" viewBox="0 0 429 454" fill="none" xmlns="http://www.w3.org/2000/svg">
<path d="M347.305 176.406C306.315 54.5659 198.952 -21.3351 107.512 6.85687C16.0434 35.0529 -24.8626 156.659 16.1244 278.508C57.1114 400.354 164.455 476.258 255.922 448.056C347.364 419.869 388.29 298.256 347.305 176.406Z" fill="url(#paint0_radial_1107_40419)"/>
<path d="M327.934 182.379C293.372 79.6468 202.762 15.6758 125.561 39.4788C48.3346 63.2848 13.7597 165.844 48.3197 268.585C82.8797 371.321 173.472 435.295 250.696 411.484C327.9 387.683 362.489 285.12 327.934 182.379ZM238.081 369.974C178.012 388.497 107.545 338.734 80.6626 258.82C53.7806 178.905 80.6746 99.1308 140.744 80.6128C200.796 62.0978 271.274 111.857 298.159 191.766C325.037 271.683 298.13 351.464 238.081 369.974Z" fill="#C93438"/>
<path d="M269.347 196.99C249.76 138.763 198.403 102.504 154.646 115.995C110.875 129.488 91.2786 187.617 110.867 245.85C130.455 304.08 181.802 340.339 225.572 326.844C269.33 313.356 288.935 255.224 269.347 196.99ZM213.856 288.011C186.131 296.56 153.607 273.592 141.198 236.708C128.791 199.822 141.205 163.002 168.929 154.455C196.647 145.909 229.177 168.876 241.586 205.759C253.992 242.645 241.571 279.468 213.856 288.011Z" fill="#C93438"/>
<path d="M224.024 210.301C216.542 188.064 196.931 174.217 180.219 179.369C163.504 184.522 156.02 206.722 163.5 228.96C170.981 251.198 190.59 265.045 207.307 259.89C224.015 254.74 231.504 232.539 224.024 210.301Z" fill="#AB4042"/>
<path d="M216.261 213.851C212.821 199.383 199.847 188.757 187.287 190.118C174.722 191.477 167.327 204.306 170.767 218.777C174.207 233.246 187.176 243.871 199.743 242.51C212.301 241.151 219.7 228.321 216.261 213.851Z" fill="url(#paint1_radial_1107_40419)"/>
<path d="M412.513 128.045L416.536 128.859L402 170.674L397.719 170.603L412.513 128.045Z" fill="url(#paint2_linear_1107_40419)"/>
<path d="M397.719 170.603L402 170.674L424.003 207.244L419.721 207.172L397.719 170.603Z" fill="url(#paint3_linear_1107_40419)"/>
<path d="M412.513 128.045L397.719 170.603L419.721 207.172L353.762 212.846L328.426 190.404L337.056 157.565L412.513 128.045Z" fill="url(#paint4_linear_1107_40419)"/>
<path d="M424.334 169.395L196.982 227.301C196.028 227.543 194.985 227.516 193.933 227.171C190.69 226.106 188.637 222.464 189.303 219.034C189.748 216.732 191.313 215.103 193.273 214.606C269.058 195.304 344.842 176.001 420.625 156.7C418.666 157.199 417.099 158.828 416.657 161.132C415.988 164.558 418.046 168.201 421.285 169.267C422.334 169.612 423.384 169.636 424.334 169.395Z" fill="url(#paint5_linear_1107_40419)"/>
<mask id="mask0_1107_40419" style="mask-type:luminance" maskUnits="userSpaceOnUse" x="189" y="156" width="236" height="72">
<path d="M424.334 169.395L196.982 227.301C196.028 227.543 194.985 227.516 193.933 227.171C190.69 226.106 188.637 222.464 189.303 219.034C189.748 216.732 191.313 215.103 193.273 214.606C269.058 195.304 344.842 176.001 420.625 156.7C418.666 157.199 417.099 158.828 416.657 161.132C415.988 164.558 418.046 168.201 421.285 169.267C422.334 169.612 423.384 169.636 424.334 169.395Z" fill="white"/>
</mask>
<g mask="url(#mask0_1107_40419)">
<path d="M424.334 169.395L196.982 227.301C196.028 227.543 194.985 227.516 193.933 227.171C190.69 226.106 188.637 222.464 189.303 219.034C189.748 216.732 191.313 215.103 193.273 214.606L420.625 156.7C418.666 157.199 417.099 158.828 416.657 161.132C415.988 164.558 418.046 168.201 421.285 169.267C422.334 169.612 423.384 169.636 424.334 169.395Z" fill="url(#paint6_linear_1107_40419)"/>
</g>
<g opacity="0.57">
<path d="M424.334 169.395L196.982 227.301C196.028 227.543 194.985 227.516 193.933 227.171C190.69 226.106 188.637 222.464 189.303 219.034C189.748 216.732 191.313 215.103 193.273 214.606C269.058 195.304 344.842 176.001 420.625 156.7C418.666 157.199 417.099 158.828 416.657 161.132C415.988 164.558 418.046 168.201 421.285 169.267C422.334 169.612 423.384 169.636 424.334 169.395Z" fill="url(#paint7_linear_1107_40419)"/>
</g>
<path d="M423.701 156.829C426.916 157.887 428.972 161.529 428.307 164.957C427.639 168.386 424.497 170.321 421.285 169.266C418.046 168.2 415.988 164.558 416.657 161.131C417.318 157.702 420.456 155.764 423.701 156.829Z" fill="url(#paint8_linear_1107_40419)"/>
<path d="M358.861 52.1308L362.774 51.5638L363.152 94.1998L359.246 95.5238L358.861 52.1308Z" fill="url(#paint9_linear_1107_40419)"/>
<path d="M359.246 95.5238L363.152 94.1998L394.966 120.231L391.059 121.554L359.246 95.5238Z" fill="url(#paint10_linear_1107_40419)"/>
<path d="M358.862 52.1308L359.247 95.5238L391.06 121.554L333.082 148.09L302.827 135.955L300.004 103.373L358.862 52.1308Z" fill="url(#paint11_linear_1107_40419)"/>
<path d="M382.993 85.7968L195.585 212.043C194.799 212.572 193.845 212.886 192.778 212.913C189.491 212.999 186.449 210.362 185.94 207.036C185.597 204.804 186.488 202.818 188.103 201.732C250.574 159.65 313.044 117.568 375.512 75.4868C373.898 76.5738 373.005 78.5598 373.351 80.7928C373.856 84.1168 376.902 86.7528 380.187 86.6688C381.249 86.6428 382.209 86.3248 382.993 85.7968Z" fill="url(#paint12_linear_1107_40419)"/>
<mask id="mask1_1107_40419" style="mask-type:luminance" maskUnits="userSpaceOnUse" x="185" y="75" width="198" height="138">
<path d="M382.993 85.7968L195.585 212.043C194.799 212.572 193.845 212.886 192.778 212.913C189.491 212.999 186.449 210.362 185.94 207.036C185.597 204.804 186.488 202.818 188.103 201.732C250.574 159.65 313.044 117.568 375.512 75.4868C373.898 76.5738 373.005 78.5598 373.351 80.7928C373.856 84.1168 376.902 86.7528 380.187 86.6688C381.249 86.6428 382.209 86.3248 382.993 85.7968Z" fill="white"/>
</mask>
<g mask="url(#mask1_1107_40419)">
<path d="M382.993 85.7968L195.585 212.043C194.799 212.572 193.845 212.886 192.778 212.913C189.491 212.999 186.449 210.362 185.94 207.036C185.597 204.804 186.488 202.818 188.103 201.732L375.512 75.4868C373.898 76.5738 373.005 78.5598 373.351 80.7928C373.856 84.1168 376.902 86.7528 380.187 86.6688C381.249 86.6428 382.209 86.3248 382.993 85.7968Z" fill="url(#paint13_linear_1107_40419)"/>
</g>
<g opacity="0.57">
<path d="M382.993 85.7968L195.585 212.043C194.799 212.572 193.845 212.886 192.778 212.913C189.491 212.999 186.449 210.362 185.94 207.036C185.597 204.804 186.488 202.818 188.103 201.732C250.574 159.65 313.044 117.568 375.512 75.4868C373.898 76.5738 373.005 78.5598 373.351 80.7928C373.856 84.1168 376.902 86.7528 380.187 86.6688C381.249 86.6428 382.209 86.3248 382.993 85.7968Z" fill="url(#paint14_linear_1107_40419)"/>
<mask id="mask2_1107_40419" style="mask-type:luminance" maskUnits="userSpaceOnUse" x="185" y="75" width="198" height="138">
<path d="M382.993 85.7968L195.585 212.043C194.799 212.572 193.845 212.886 192.778 212.913C189.491 212.999 186.449 210.362 185.94 207.036C185.597 204.804 186.488 202.818 188.103 201.732C250.574 159.65 313.044 117.568 375.512 75.4868C373.898 76.5738 373.005 78.5598 373.351 80.7928C373.856 84.1168 376.902 86.7528 380.187 86.6688C381.249 86.6428 382.209 86.3248 382.993 85.7968Z" fill="white"/>
</mask>
<g mask="url(#mask2_1107_40419)">
<path d="M382.993 85.7968L195.585 212.043C194.799 212.572 193.845 212.886 192.778 212.913C189.491 212.999 186.449 210.362 185.94 207.036C185.597 204.804 186.488 202.818 188.103 201.732L375.512 75.4868C373.898 76.5738 373.005 78.5598 373.351 80.7928C373.856 84.1168 376.902 86.7528 380.187 86.6688C381.249 86.6428 382.209 86.3248 382.993 85.7968Z" fill="url(#paint15_linear_1107_40419)"/>
</g>
</g>
<path d="M378.346 74.6058C381.605 74.5218 384.651 77.1598 385.16 80.4838C385.667 83.8108 383.444 86.5848 380.189 86.6698C376.904 86.7548 373.858 84.1178 373.353 80.7938C372.842 77.4678 375.057 74.6918 378.346 74.6058Z" fill="url(#paint16_linear_1107_40419)"/>
<defs>
<radialGradient id="paint0_radial_1107_40419" cx="0" cy="0" r="1" gradientUnits="userSpaceOnUse" gradientTransform="translate(112.713 226.458) scale(581.088 581.088)">
<stop offset="0.1582" stop-color="white"/>
<stop offset="1" stop-color="#404040"/>
</radialGradient>
<radialGradient id="paint1_radial_1107_40419" cx="0" cy="0" r="1" gradientUnits="userSpaceOnUse" gradientTransform="translate(193.514 216.314) rotate(-6.17674) scale(22.8796 26.714)">
<stop offset="0.0761"/>
<stop offset="0.2058" stop-color="#363636"/>
<stop offset="0.3665" stop-color="#727272"/>
<stop offset="0.5213" stop-color="#A5A5A5"/>
<stop offset="0.666" stop-color="#CCCCCC"/>
<stop offset="0.7983" stop-color="#E8E8E8"/>
<stop offset="0.9139" stop-color="#F9F9F9"/>
<stop offset="1" stop-color="white"/>
</radialGradient>
<linearGradient id="paint2_linear_1107_40419" x1="413.229" y1="149.668" x2="392.178" y2="152.063" gradientUnits="userSpaceOnUse">
<stop stop-color="#C93438"/>
<stop offset="1" stop-color="#630407"/>
</linearGradient>
<linearGradient id="paint3_linear_1107_40419" x1="419.384" y1="189.189" x2="390.583" y2="194.514" gradientUnits="userSpaceOnUse">
<stop stop-color="#C93438"/>
<stop offset="1" stop-color="#630407"/>
</linearGradient>
<linearGradient id="paint4_linear_1107_40419" x1="403.678" y1="171.06" x2="307.617" y2="197.715" gradientUnits="userSpaceOnUse">
<stop stop-color="#C93438"/>
<stop offset="1" stop-color="#630407"/>
</linearGradient>
<linearGradient id="paint5_linear_1107_40419" x1="303.661" y1="183.664" x2="308.692" y2="202.639" gradientUnits="userSpaceOnUse">
<stop offset="0.0914" stop-color="#D4AE75"/>
<stop offset="0.1371" stop-color="white"/>
<stop offset="0.3249" stop-color="#D4AE75"/>
<stop offset="0.7919" stop-color="#453615"/>
</linearGradient>
<linearGradient id="paint6_linear_1107_40419" x1="303.661" y1="183.664" x2="308.692" y2="202.639" gradientUnits="userSpaceOnUse">
<stop offset="0.0914" stop-color="#D4AE75"/>
<stop offset="0.1371" stop-color="white"/>
<stop offset="0.3249" stop-color="#D4AE75"/>
<stop offset="0.7919" stop-color="#453615"/>
</linearGradient>
<linearGradient id="paint7_linear_1107_40419" x1="298.383" y1="194.989" x2="192.02" y2="225.511" gradientUnits="userSpaceOnUse">
<stop stop-color="white"/>
<stop offset="1" stop-color="#B2B2B2"/>
</linearGradient>
<linearGradient id="paint8_linear_1107_40419" x1="426.341" y1="163.14" x2="413.564" y2="166.15" gradientUnits="userSpaceOnUse">
<stop stop-color="#C93438"/>
<stop offset="1" stop-color="#630407"/>
</linearGradient>
<linearGradient id="paint9_linear_1107_40419" x1="362.398" y1="73.8624" x2="357.539" y2="73.9847" gradientUnits="userSpaceOnUse">
<stop stop-color="#C93438"/>
<stop offset="1" stop-color="#630407"/>
</linearGradient>
<linearGradient id="paint10_linear_1107_40419" x1="388.689" y1="108.075" x2="352.33" y2="120.313" gradientUnits="userSpaceOnUse">
<stop stop-color="#C93438"/>
<stop offset="1" stop-color="#630407"/>
</linearGradient>
<linearGradient id="paint11_linear_1107_40419" x1="375.059" y1="100.806" x2="277.697" y2="124.618" gradientUnits="userSpaceOnUse">
<stop stop-color="#C93438"/>
<stop offset="1" stop-color="#630407"/>
</linearGradient>
<linearGradient id="paint12_linear_1107_40419" x1="278.185" y1="137.876" x2="288.893" y2="153.444" gradientUnits="userSpaceOnUse">
<stop offset="0.0914" stop-color="#848484"/>
<stop offset="0.1371" stop-color="white"/>
<stop offset="0.3249" stop-color="#848484"/>
<stop offset="0.7919" stop-color="#232323"/>
</linearGradient>
<linearGradient id="paint13_linear_1107_40419" x1="278.185" y1="137.876" x2="288.893" y2="153.444" gradientUnits="userSpaceOnUse">
<stop offset="0.0914" stop-color="#848484"/>
<stop offset="0.1371" stop-color="white"/>
<stop offset="0.3249" stop-color="#848484"/>
<stop offset="0.7919" stop-color="#232323"/>
</linearGradient>
<linearGradient id="paint14_linear_1107_40419" x1="277.068" y1="149.854" x2="190.501" y2="212.024" gradientUnits="userSpaceOnUse">
<stop stop-color="white"/>
<stop offset="1"/>
</linearGradient>
<linearGradient id="paint15_linear_1107_40419" x1="277.068" y1="149.854" x2="190.501" y2="212.024" gradientUnits="userSpaceOnUse">
<stop stop-color="white"/>
<stop offset="1" stop-color="#B2B2B2"/>
</linearGradient>
<linearGradient id="paint16_linear_1107_40419" x1="383.131" y1="80.7253" x2="370.415" y2="83.9714" gradientUnits="userSpaceOnUse">
<stop stop-color="#C93438"/>
<stop offset="1" stop-color="#630407"/>
</linearGradient>
</defs>
</svg>
