<svg xmlns="http://www.w3.org/2000/svg" xmlns:xlink="http://www.w3.org/1999/xlink" width="100" viewBox="0 0 75 74.999997" height="100" preserveAspectRatio="xMidYMid meet"><defs><clipPath id="b481c8ff34"><path d="M 23 22.933594 L 45 22.933594 L 45 44 L 23 44 Z M 23 22.933594 " clip-rule="nonzero"></path></clipPath></defs><path stroke-linecap="butt" transform="matrix(0.749992, 0.0033656, -0.0033656, 0.749992, 8.028285, 7.500013)" fill="none" stroke-linejoin="miter" d="M 0.000988982 0.499983 L 24.709567 0.498479 " stroke="#c93438" stroke-width="1" stroke-opacity="1" stroke-miterlimit="4"></path><path stroke-linecap="butt" transform="matrix(0, -0.75, 0.75, 0, 7.646721, 26.030549)" fill="none" stroke-linejoin="miter" d="M -0.000935261 0.502289 L 24.712608 0.502289 " stroke="#c93438" stroke-width="1" stroke-opacity="1" stroke-miterlimit="4"></path><path stroke-linecap="butt" transform="matrix(0.749992, 0.0033656, -0.0033656, 0.749992, 48.966439, 66.666834)" fill="none" stroke-linejoin="miter" d="M 0.000123412 0.501518 L 24.713909 0.499991 " stroke="#c93438" stroke-width="1" stroke-opacity="1" stroke-miterlimit="4"></path><path stroke-linecap="butt" transform="matrix(0, -0.75, 0.75, 0, 66.745119, 67.496785)" fill="none" stroke-linejoin="miter" d="M 0.00092125 0.501299 L 24.709257 0.501299 " stroke="#c93438" stroke-width="1" stroke-opacity="1" stroke-miterlimit="4"></path><g clip-path="url(#b481c8ff34)"><path fill="#ffffff" d="M 33.957031 43.339844 C 28.324219 43.339844 23.761719 38.777344 23.761719 33.144531 C 23.761719 27.507812 28.324219 22.945312 33.957031 22.945312 C 39.59375 22.945312 44.152344 27.507812 44.152344 33.144531 C 44.152344 38.777344 39.59375 43.339844 33.957031 43.339844 Z M 33.957031 23.625 C 25.5 23.625 21.246094 33.894531 27.226562 39.871094 C 33.210938 45.855469 43.476562 41.601562 43.476562 33.144531 C 43.476562 27.882812 39.21875 23.625 33.957031 23.625 Z M 33.957031 23.625 " fill-opacity="1" fill-rule="evenodd"></path></g><path fill="#ffffff" d="M 33.957031 40.972656 C 29.640625 40.972656 26.128906 37.460938 26.128906 33.140625 C 26.128906 32.695312 26.804688 32.695312 26.804688 33.140625 C 26.804688 37.085938 30.015625 40.296875 33.957031 40.296875 C 34.402344 40.296875 34.402344 40.972656 33.957031 40.972656 Z M 33.957031 40.972656 " fill-opacity="1" fill-rule="evenodd"></path><path fill="#ffffff" d="M 41.449219 33.480469 C 41.261719 33.480469 41.109375 33.328125 41.109375 33.140625 C 41.109375 29.199219 37.902344 25.988281 33.957031 25.988281 C 33.511719 25.988281 33.511719 25.3125 33.957031 25.3125 C 38.277344 25.3125 41.789062 28.824219 41.789062 33.140625 C 41.789062 33.328125 41.636719 33.480469 41.449219 33.480469 Z M 41.449219 33.480469 " fill-opacity="1" fill-rule="evenodd"></path><path fill="#ffffff" d="M 49.359375 51.839844 C 48.484375 51.839844 47.695312 51.492188 47.152344 50.855469 L 39.222656 41.527344 C 38.933594 41.1875 39.449219 40.75 39.738281 41.089844 L 47.667969 50.417969 C 49.058594 52.050781 52.074219 50.855469 51.976562 48.4375 C 51.953125 47.800781 51.6875 47.238281 51.234375 46.851562 L 41.90625 38.921875 C 41.566406 38.632812 42.003906 38.117188 42.34375 38.40625 L 51.671875 46.335938 C 53.742188 48.097656 52.371094 51.839844 49.359375 51.839844 Z M 49.359375 51.839844 " fill-opacity="1" fill-rule="evenodd"></path><path fill="#ffffff" d="M 29.898438 35.5 C 29.078125 35.5 28.328125 34.640625 28.847656 34.347656 C 29.3125 34.089844 29.269531 34.824219 29.898438 34.824219 C 30.265625 34.824219 30.566406 34.523438 30.566406 34.152344 C 30.566406 32.996094 28.546875 33.957031 28.546875 32.132812 C 28.546875 30.636719 30.636719 30.269531 31.160156 31.660156 C 31.316406 32.074219 30.683594 32.3125 30.523438 31.898438 C 30.265625 31.207031 29.226562 31.390625 29.226562 32.132812 C 29.226562 33.289062 31.246094 32.332031 31.246094 34.152344 C 31.246094 34.894531 30.640625 35.5 29.898438 35.5 Z M 29.898438 35.5 " fill-opacity="1" fill-rule="evenodd"></path><path fill="#ffffff" d="M 38.011719 35.5 C 37.265625 35.5 36.660156 34.894531 36.660156 34.144531 L 36.660156 32.140625 C 36.660156 30.355469 39.367188 30.355469 39.367188 32.140625 L 39.367188 34.144531 C 39.367188 34.894531 38.761719 35.5 38.011719 35.5 Z M 38.011719 31.460938 C 37.640625 31.460938 37.335938 31.765625 37.335938 32.140625 L 37.335938 34.144531 C 37.335938 34.519531 37.640625 34.824219 38.011719 34.824219 C 38.386719 34.824219 38.691406 34.519531 38.691406 34.144531 L 38.691406 32.140625 C 38.691406 31.765625 38.386719 31.460938 38.011719 31.460938 Z M 38.011719 31.460938 " fill-opacity="1" fill-rule="evenodd"></path><path fill="#ffffff" d="M 35.089844 35.5 L 33.054688 35.5 C 32.871094 35.5 32.71875 35.347656 32.71875 35.164062 L 32.71875 31.121094 C 32.71875 30.9375 32.871094 30.785156 33.054688 30.785156 L 35.089844 30.785156 C 35.535156 30.785156 35.535156 31.460938 35.089844 31.460938 L 33.394531 31.460938 L 33.394531 34.824219 L 35.089844 34.824219 C 35.535156 34.824219 35.535156 35.5 35.089844 35.5 Z M 35.089844 35.5 " fill-opacity="1" fill-rule="evenodd"></path><path fill="#ffffff" d="M 34.863281 33.480469 L 33.054688 33.480469 C 32.609375 33.480469 32.609375 32.804688 33.054688 32.804688 L 34.863281 32.804688 C 35.308594 32.804688 35.308594 33.480469 34.863281 33.480469 Z M 34.863281 33.480469 " fill-opacity="1" fill-rule="evenodd"></path></svg>