<svg xmlns="http://www.w3.org/2000/svg" xmlns:xlink="http://www.w3.org/1999/xlink" width="100" viewBox="0 0 75 74.999997" height="100" preserveAspectRatio="xMidYMid meet"><defs><clipPath id="2c43d7c0d8"><path d="M 20.066406 23.160156 L 54.566406 23.160156 L 54.566406 51.660156 L 20.066406 51.660156 Z M 20.066406 23.160156 " clip-rule="nonzero"></path></clipPath></defs><path stroke-linecap="butt" transform="matrix(0.749992, 0.0033656, -0.0033656, 0.749992, 8.028285, 7.500013)" fill="none" stroke-linejoin="miter" d="M 0.000988985 0.499984 L 24.709567 0.49848 " stroke="#c93438" stroke-width="1" stroke-opacity="1" stroke-miterlimit="4"></path><path stroke-linecap="butt" transform="matrix(0, -0.75, 0.75, 0, 7.646721, 26.030539)" fill="none" stroke-linejoin="miter" d="M -0.000947421 0.502289 L 24.712596 0.502289 " stroke="#c93438" stroke-width="1" stroke-opacity="1" stroke-miterlimit="4"></path><path stroke-linecap="butt" transform="matrix(0.749992, 0.0033656, -0.0033656, 0.749992, 48.966439, 66.666848)" fill="none" stroke-linejoin="miter" d="M 0.000123326 0.501499 L 24.713909 0.499972 " stroke="#c93438" stroke-width="1" stroke-opacity="1" stroke-miterlimit="4"></path><path stroke-linecap="butt" transform="matrix(0, -0.75, 0.75, 0, 66.745119, 67.496792)" fill="none" stroke-linejoin="miter" d="M 0.00093085 0.501299 L 24.709266 0.501299 " stroke="#c93438" stroke-width="1" stroke-opacity="1" stroke-miterlimit="4"></path><g clip-path="url(#2c43d7c0d8)"><path fill="#ffffff" d="M 53.269531 23.164062 L 21.722656 23.164062 C 21.503906 23.164062 21.292969 23.207031 21.089844 23.289062 C 20.886719 23.375 20.707031 23.496094 20.550781 23.648438 C 20.394531 23.804688 20.277344 23.984375 20.191406 24.1875 C 20.105469 24.390625 20.066406 24.601562 20.066406 24.824219 L 20.066406 44.511719 C 20.0625 44.730469 20.105469 44.941406 20.191406 45.144531 C 20.273438 45.351562 20.394531 45.53125 20.550781 45.683594 C 20.707031 45.839844 20.886719 45.960938 21.089844 46.046875 C 21.292969 46.128906 21.503906 46.171875 21.722656 46.171875 L 33.039062 46.171875 L 33.039062 49.410156 L 30.226562 49.410156 C 30.015625 49.410156 29.835938 49.484375 29.683594 49.632812 C 29.535156 49.78125 29.460938 49.960938 29.460938 50.171875 L 29.460938 51.832031 L 45.53125 51.832031 L 45.53125 50.171875 C 45.53125 49.960938 45.457031 49.78125 45.308594 49.632812 C 45.15625 49.484375 44.976562 49.410156 44.765625 49.410156 L 41.953125 49.410156 L 41.953125 46.171875 L 53.265625 46.171875 C 53.488281 46.171875 53.699219 46.128906 53.902344 46.042969 C 54.105469 45.960938 54.285156 45.839844 54.441406 45.683594 C 54.597656 45.527344 54.714844 45.347656 54.800781 45.144531 C 54.886719 44.941406 54.925781 44.730469 54.925781 44.511719 L 54.925781 24.824219 C 54.925781 24.601562 54.886719 24.390625 54.800781 24.1875 C 54.714844 23.984375 54.597656 23.804688 54.441406 23.648438 C 54.285156 23.496094 54.105469 23.375 53.902344 23.289062 C 53.699219 23.207031 53.488281 23.164062 53.269531 23.164062 Z M 44.765625 50.042969 C 44.851562 50.042969 44.894531 50.085938 44.898438 50.171875 L 44.898438 51.199219 L 30.09375 51.199219 L 30.09375 50.171875 C 30.09375 50.085938 30.136719 50.042969 30.226562 50.042969 Z M 41.316406 49.40625 L 33.675781 49.40625 L 33.675781 46.171875 L 41.320312 46.171875 Z M 54.292969 44.511719 C 54.292969 44.644531 54.265625 44.777344 54.214844 44.902344 C 54.164062 45.027344 54.089844 45.140625 53.992188 45.234375 C 53.898438 45.332031 53.785156 45.40625 53.660156 45.457031 C 53.535156 45.507812 53.402344 45.535156 53.269531 45.535156 L 21.726562 45.535156 C 21.589844 45.535156 21.457031 45.507812 21.332031 45.457031 C 21.207031 45.40625 21.097656 45.332031 21 45.234375 C 20.90625 45.140625 20.832031 45.027344 20.777344 44.902344 C 20.726562 44.777344 20.699219 44.644531 20.699219 44.511719 L 20.699219 42.324219 L 54.292969 42.324219 Z M 30.28125 35.972656 L 30.261719 35.953125 C 30.207031 35.894531 30.207031 35.839844 30.261719 35.78125 L 31.269531 34.773438 C 31.324219 34.714844 31.382812 34.714844 31.441406 34.769531 L 31.460938 34.792969 L 33.011719 35.84375 L 33.191406 35.722656 C 34.074219 35.113281 35.042969 34.710938 36.097656 34.515625 L 36.3125 34.476562 L 36.660156 32.640625 L 36.660156 32.609375 C 36.660156 32.53125 36.703125 32.488281 36.78125 32.488281 L 38.210938 32.488281 C 38.292969 32.488281 38.332031 32.53125 38.332031 32.609375 L 38.332031 32.640625 L 38.683594 34.476562 L 38.894531 34.515625 C 39.949219 34.710938 40.921875 35.113281 41.804688 35.722656 L 41.980469 35.84375 L 43.53125 34.792969 L 43.554688 34.769531 C 43.609375 34.714844 43.667969 34.714844 43.722656 34.773438 L 44.730469 35.78125 C 44.789062 35.835938 44.789062 35.894531 44.734375 35.953125 L 44.710938 35.972656 L 43.660156 37.523438 L 43.785156 37.699219 C 44.390625 38.585938 44.792969 39.554688 44.992188 40.609375 L 45.03125 40.820312 L 46.863281 41.171875 L 46.894531 41.171875 C 46.972656 41.171875 47.011719 41.214844 47.011719 41.292969 L 47.011719 41.691406 L 42.714844 41.691406 C 42.691406 41.359375 42.644531 41.035156 42.5625 40.714844 C 42.480469 40.394531 42.371094 40.085938 42.230469 39.789062 C 42.089844 39.488281 41.921875 39.207031 41.730469 38.9375 C 41.535156 38.671875 41.320312 38.425781 41.078125 38.199219 C 40.839844 37.972656 40.578125 37.769531 40.300781 37.59375 C 40.023438 37.417969 39.730469 37.265625 39.421875 37.144531 C 39.117188 37.023438 38.800781 36.933594 38.476562 36.871094 C 38.152344 36.808594 37.824219 36.777344 37.496094 36.777344 C 37.167969 36.777344 36.839844 36.808594 36.515625 36.871094 C 36.191406 36.933594 35.875 37.023438 35.570312 37.144531 C 35.261719 37.265625 34.96875 37.417969 34.691406 37.59375 C 34.414062 37.769531 34.152344 37.972656 33.914062 38.199219 C 33.671875 38.425781 33.457031 38.671875 33.261719 38.9375 C 33.070312 39.207031 32.902344 39.488281 32.761719 39.789062 C 32.621094 40.085938 32.511719 40.394531 32.429688 40.714844 C 32.351562 41.035156 32.300781 41.359375 32.28125 41.691406 L 27.980469 41.691406 L 27.980469 41.292969 C 27.980469 41.214844 28.019531 41.171875 28.097656 41.171875 L 28.128906 41.171875 L 29.960938 40.820312 L 30.003906 40.609375 C 30.199219 39.554688 30.601562 38.585938 31.207031 37.699219 L 31.332031 37.523438 Z M 37.496094 37.414062 C 39.921875 37.414062 41.914062 39.304688 42.078125 41.691406 L 32.914062 41.691406 C 33.078125 39.304688 35.070312 37.414062 37.496094 37.414062 Z M 47.648438 41.691406 L 47.648438 41.292969 C 47.648438 41.089844 47.578125 40.917969 47.4375 40.773438 C 47.300781 40.625 47.128906 40.546875 46.929688 40.539062 L 45.570312 40.277344 C 45.359375 39.289062 44.976562 38.371094 44.425781 37.523438 L 45.203125 36.375 C 45.339844 36.226562 45.40625 36.050781 45.398438 35.847656 C 45.394531 35.648438 45.324219 35.476562 45.179688 35.332031 L 44.171875 34.324219 C 44.027344 34.179688 43.855469 34.105469 43.652344 34.101562 C 43.453125 34.097656 43.277344 34.164062 43.125 34.300781 L 41.980469 35.078125 C 41.132812 34.523438 40.214844 34.144531 39.222656 33.933594 L 38.964844 32.578125 C 38.957031 32.375 38.878906 32.203125 38.730469 32.066406 C 38.585938 31.925781 38.410156 31.855469 38.210938 31.855469 L 36.78125 31.855469 C 36.582031 31.855469 36.40625 31.925781 36.261719 32.066406 C 36.113281 32.203125 36.035156 32.375 36.027344 32.578125 L 35.769531 33.933594 C 34.777344 34.144531 33.859375 34.523438 33.011719 35.078125 L 31.867188 34.300781 C 31.714844 34.164062 31.539062 34.097656 31.339844 34.101562 C 31.136719 34.109375 30.964844 34.179688 30.820312 34.324219 L 29.8125 35.332031 C 29.667969 35.476562 29.597656 35.648438 29.59375 35.851562 C 29.585938 36.050781 29.652344 36.226562 29.789062 36.375 L 30.566406 37.523438 C 30.015625 38.371094 29.632812 39.289062 29.421875 40.28125 L 28.0625 40.539062 C 27.863281 40.546875 27.691406 40.625 27.554688 40.773438 C 27.414062 40.917969 27.34375 41.089844 27.34375 41.292969 L 27.34375 41.691406 L 20.699219 41.691406 L 20.699219 24.824219 C 20.699219 24.6875 20.726562 24.554688 20.777344 24.429688 C 20.828125 24.304688 20.902344 24.195312 21 24.097656 C 21.097656 24.003906 21.207031 23.929688 21.332031 23.875 C 21.457031 23.824219 21.589844 23.796875 21.722656 23.796875 L 53.269531 23.796875 C 53.402344 23.796875 53.535156 23.824219 53.660156 23.875 C 53.785156 23.929688 53.898438 24.003906 53.992188 24.097656 C 54.089844 24.195312 54.164062 24.304688 54.214844 24.429688 C 54.265625 24.554688 54.292969 24.6875 54.292969 24.824219 L 54.292969 41.691406 Z M 47.648438 41.691406 " fill-opacity="1" fill-rule="nonzero"></path></g></svg>