<svg xmlns="http://www.w3.org/2000/svg" xmlns:xlink="http://www.w3.org/1999/xlink" width="100" viewBox="0 0 75 74.999997" height="100" preserveAspectRatio="xMidYMid meet"><defs><clipPath id="9805d8e445"><path d="M 21.457031 23.640625 L 53.707031 23.640625 L 53.707031 51.390625 L 21.457031 51.390625 Z M 21.457031 23.640625 " clip-rule="nonzero"></path></clipPath></defs><path stroke-linecap="butt" transform="matrix(0.749992, 0.0033656, -0.0033656, 0.749992, 8.028285, 7.500013)" fill="none" stroke-linejoin="miter" d="M 0.000988985 0.499984 L 24.709567 0.49848 " stroke="#c93438" stroke-width="1" stroke-opacity="1" stroke-miterlimit="4"></path><path stroke-linecap="butt" transform="matrix(0, -0.75, 0.75, 0, 7.646721, 26.030539)" fill="none" stroke-linejoin="miter" d="M -0.000947421 0.502289 L 24.712596 0.502289 " stroke="#c93438" stroke-width="1" stroke-opacity="1" stroke-miterlimit="4"></path><path stroke-linecap="butt" transform="matrix(0.749992, 0.0033656, -0.0033656, 0.749992, 48.966439, 66.666848)" fill="none" stroke-linejoin="miter" d="M 0.000123326 0.501499 L 24.713909 0.499972 " stroke="#c93438" stroke-width="1" stroke-opacity="1" stroke-miterlimit="4"></path><path stroke-linecap="butt" transform="matrix(0, -0.75, 0.75, 0, 66.745119, 67.496792)" fill="none" stroke-linejoin="miter" d="M 0.00093085 0.501299 L 24.709266 0.501299 " stroke="#c93438" stroke-width="1" stroke-opacity="1" stroke-miterlimit="4"></path><g clip-path="url(#9805d8e445)"><path fill="#ffffff" d="M 51.054688 23.640625 L 24.085938 23.640625 C 23.738281 23.640625 23.40625 23.707031 23.085938 23.839844 C 22.765625 23.972656 22.480469 24.164062 22.234375 24.410156 C 21.988281 24.652344 21.800781 24.9375 21.667969 25.257812 C 21.535156 25.578125 21.464844 25.914062 21.464844 26.261719 L 21.464844 48.734375 C 21.464844 49.082031 21.535156 49.414062 21.667969 49.734375 C 21.800781 50.054688 21.988281 50.339844 22.234375 50.585938 C 22.480469 50.832031 22.765625 51.019531 23.085938 51.152344 C 23.40625 51.289062 23.738281 51.355469 24.085938 51.355469 L 51.054688 51.355469 C 51.402344 51.355469 51.734375 51.289062 52.054688 51.152344 C 52.378906 51.019531 52.660156 50.832031 52.90625 50.585938 C 53.152344 50.339844 53.339844 50.054688 53.476562 49.734375 C 53.609375 49.414062 53.675781 49.082031 53.675781 48.734375 L 53.675781 26.261719 C 53.675781 25.914062 53.609375 25.578125 53.476562 25.257812 C 53.339844 24.9375 53.152344 24.652344 52.90625 24.410156 C 52.660156 24.164062 52.378906 23.972656 52.054688 23.839844 C 51.734375 23.707031 51.402344 23.640625 51.054688 23.640625 Z M 24.085938 24.386719 L 51.054688 24.386719 C 51.300781 24.390625 51.539062 24.4375 51.769531 24.53125 C 52 24.625 52.203125 24.761719 52.378906 24.9375 C 52.550781 25.113281 52.6875 25.316406 52.78125 25.546875 C 52.878906 25.773438 52.925781 26.011719 52.925781 26.261719 L 52.925781 28.132812 L 22.214844 28.132812 L 22.214844 26.261719 C 22.214844 26.011719 22.261719 25.773438 22.359375 25.546875 C 22.453125 25.316406 22.589844 25.113281 22.765625 24.9375 C 22.941406 24.761719 23.140625 24.625 23.371094 24.53125 C 23.601562 24.4375 23.839844 24.390625 24.085938 24.386719 Z M 51.054688 50.605469 L 24.085938 50.605469 C 23.839844 50.605469 23.601562 50.558594 23.371094 50.460938 C 23.140625 50.367188 22.941406 50.230469 22.765625 50.054688 C 22.589844 49.878906 22.453125 49.679688 22.359375 49.449219 C 22.261719 49.21875 22.214844 48.980469 22.214844 48.734375 L 22.214844 28.882812 L 52.925781 28.882812 L 52.925781 48.734375 C 52.925781 48.980469 52.878906 49.21875 52.78125 49.449219 C 52.6875 49.679688 52.550781 49.878906 52.378906 50.054688 C 52.203125 50.230469 52 50.367188 51.769531 50.460938 C 51.539062 50.558594 51.300781 50.605469 51.054688 50.605469 Z M 51.054688 50.605469 " fill-opacity="1" fill-rule="nonzero"></path></g><path fill="#ffffff" d="M 24.460938 27.386719 C 24.609375 27.386719 24.753906 27.355469 24.890625 27.300781 C 25.03125 27.242188 25.152344 27.160156 25.257812 27.054688 C 25.363281 26.949219 25.441406 26.828125 25.5 26.691406 C 25.558594 26.554688 25.585938 26.410156 25.585938 26.261719 C 25.585938 26.113281 25.558594 25.96875 25.5 25.832031 C 25.441406 25.695312 25.363281 25.570312 25.257812 25.464844 C 25.152344 25.363281 25.03125 25.28125 24.890625 25.222656 C 24.753906 25.167969 24.609375 25.136719 24.460938 25.136719 C 24.3125 25.136719 24.171875 25.167969 24.03125 25.222656 C 23.894531 25.28125 23.773438 25.363281 23.667969 25.464844 C 23.5625 25.570312 23.480469 25.695312 23.425781 25.832031 C 23.367188 25.96875 23.339844 26.113281 23.339844 26.261719 C 23.339844 26.410156 23.367188 26.554688 23.425781 26.691406 C 23.480469 26.828125 23.5625 26.949219 23.667969 27.054688 C 23.773438 27.160156 23.894531 27.242188 24.03125 27.300781 C 24.171875 27.355469 24.3125 27.382812 24.460938 27.386719 Z M 24.460938 25.886719 C 24.566406 25.886719 24.652344 25.921875 24.726562 25.996094 C 24.800781 26.070312 24.835938 26.15625 24.835938 26.261719 C 24.835938 26.363281 24.800781 26.453125 24.726562 26.527344 C 24.652344 26.597656 24.566406 26.636719 24.460938 26.636719 C 24.359375 26.636719 24.269531 26.597656 24.199219 26.527344 C 24.125 26.453125 24.085938 26.363281 24.085938 26.261719 C 24.085938 26.15625 24.125 26.070312 24.199219 25.996094 C 24.269531 25.921875 24.359375 25.886719 24.460938 25.886719 Z M 24.460938 25.886719 " fill-opacity="1" fill-rule="nonzero"></path><path fill="#ffffff" d="M 27.457031 27.386719 C 27.609375 27.386719 27.75 27.355469 27.886719 27.300781 C 28.027344 27.242188 28.148438 27.160156 28.253906 27.054688 C 28.359375 26.949219 28.441406 26.828125 28.496094 26.691406 C 28.554688 26.554688 28.582031 26.410156 28.582031 26.261719 C 28.582031 26.113281 28.554688 25.96875 28.496094 25.832031 C 28.441406 25.695312 28.359375 25.570312 28.253906 25.464844 C 28.148438 25.363281 28.027344 25.28125 27.886719 25.222656 C 27.75 25.167969 27.609375 25.136719 27.457031 25.136719 C 27.308594 25.136719 27.167969 25.167969 27.027344 25.222656 C 26.890625 25.28125 26.769531 25.363281 26.664062 25.464844 C 26.558594 25.570312 26.476562 25.695312 26.421875 25.832031 C 26.363281 25.96875 26.335938 26.113281 26.335938 26.261719 C 26.335938 26.410156 26.363281 26.554688 26.421875 26.691406 C 26.476562 26.828125 26.558594 26.949219 26.664062 27.054688 C 26.769531 27.160156 26.890625 27.242188 27.027344 27.300781 C 27.167969 27.355469 27.308594 27.382812 27.457031 27.386719 Z M 27.457031 25.886719 C 27.5625 25.886719 27.648438 25.921875 27.722656 25.996094 C 27.796875 26.070312 27.832031 26.15625 27.832031 26.261719 C 27.832031 26.363281 27.796875 26.453125 27.722656 26.527344 C 27.648438 26.597656 27.5625 26.636719 27.457031 26.636719 C 27.355469 26.636719 27.265625 26.597656 27.195312 26.527344 C 27.121094 26.453125 27.082031 26.363281 27.082031 26.261719 C 27.085938 26.15625 27.121094 26.070312 27.195312 25.996094 C 27.265625 25.921875 27.355469 25.886719 27.457031 25.886719 Z M 27.457031 25.886719 " fill-opacity="1" fill-rule="nonzero"></path><path fill="#ffffff" d="M 30.453125 27.386719 C 30.605469 27.386719 30.746094 27.355469 30.882812 27.300781 C 31.023438 27.242188 31.144531 27.160156 31.25 27.054688 C 31.355469 26.949219 31.4375 26.828125 31.492188 26.691406 C 31.550781 26.554688 31.578125 26.410156 31.578125 26.261719 C 31.578125 26.113281 31.550781 25.96875 31.492188 25.832031 C 31.4375 25.695312 31.355469 25.570312 31.25 25.464844 C 31.144531 25.363281 31.023438 25.28125 30.882812 25.222656 C 30.746094 25.167969 30.605469 25.136719 30.453125 25.136719 C 30.304688 25.136719 30.164062 25.167969 30.023438 25.222656 C 29.886719 25.28125 29.765625 25.363281 29.660156 25.464844 C 29.554688 25.570312 29.472656 25.695312 29.417969 25.832031 C 29.359375 25.96875 29.332031 26.113281 29.332031 26.261719 C 29.332031 26.410156 29.359375 26.554688 29.417969 26.691406 C 29.472656 26.828125 29.554688 26.949219 29.660156 27.054688 C 29.765625 27.160156 29.886719 27.242188 30.023438 27.300781 C 30.164062 27.355469 30.304688 27.382812 30.453125 27.386719 Z M 30.453125 25.886719 C 30.558594 25.886719 30.644531 25.921875 30.71875 25.996094 C 30.792969 26.070312 30.828125 26.15625 30.828125 26.261719 C 30.828125 26.363281 30.792969 26.453125 30.71875 26.527344 C 30.644531 26.597656 30.558594 26.636719 30.453125 26.636719 C 30.351562 26.636719 30.261719 26.597656 30.191406 26.527344 C 30.117188 26.453125 30.082031 26.363281 30.082031 26.261719 C 30.082031 26.15625 30.117188 26.070312 30.191406 25.996094 C 30.261719 25.921875 30.351562 25.886719 30.453125 25.886719 Z M 30.453125 25.886719 " fill-opacity="1" fill-rule="nonzero"></path><path fill="#ffffff" d="M 39.816406 26.636719 L 51.054688 26.636719 C 51.15625 26.636719 51.246094 26.597656 51.316406 26.527344 C 51.390625 26.453125 51.429688 26.363281 51.429688 26.261719 C 51.429688 26.15625 51.390625 26.070312 51.316406 25.996094 C 51.246094 25.921875 51.15625 25.886719 51.054688 25.886719 L 39.816406 25.886719 C 39.714844 25.886719 39.625 25.921875 39.554688 25.996094 C 39.480469 26.070312 39.441406 26.15625 39.441406 26.261719 C 39.441406 26.363281 39.480469 26.453125 39.554688 26.527344 C 39.625 26.597656 39.714844 26.636719 39.816406 26.636719 Z M 39.816406 26.636719 " fill-opacity="1" fill-rule="nonzero"></path><path fill="#ffffff" d="M 41.84375 38.996094 L 45.453125 35.386719 C 45.6875 35.152344 45.871094 34.882812 45.996094 34.578125 C 46.121094 34.273438 46.1875 33.953125 46.1875 33.621094 C 46.1875 33.292969 46.125 32.972656 45.996094 32.667969 C 45.871094 32.363281 45.691406 32.09375 45.457031 31.859375 C 45.222656 31.625 44.953125 31.445312 44.648438 31.316406 C 44.339844 31.191406 44.023438 31.128906 43.691406 31.128906 C 43.359375 31.128906 43.042969 31.191406 42.738281 31.320312 C 42.433594 31.445312 42.164062 31.625 41.929688 31.859375 L 38.320312 35.46875 L 33.714844 30.867188 C 33.640625 30.792969 33.554688 30.753906 33.449219 30.753906 C 33.347656 30.753906 33.257812 30.792969 33.1875 30.867188 L 28.691406 35.359375 C 28.617188 35.433594 28.582031 35.519531 28.582031 35.625 C 28.582031 35.726562 28.617188 35.816406 28.691406 35.890625 L 33.296875 40.492188 L 29.816406 43.972656 C 29.765625 44.027344 29.730469 44.09375 29.714844 44.164062 L 28.964844 47.910156 C 28.953125 47.972656 28.953125 48.03125 28.972656 48.09375 C 28.992188 48.152344 29.023438 48.203125 29.066406 48.25 C 29.109375 48.292969 29.164062 48.324219 29.222656 48.34375 C 29.28125 48.359375 29.34375 48.363281 29.40625 48.351562 L 33.148438 47.601562 C 33.222656 47.582031 33.285156 47.550781 33.339844 47.5 L 36.820312 44.019531 L 41.425781 48.621094 C 41.5 48.695312 41.585938 48.734375 41.691406 48.734375 C 41.792969 48.734375 41.882812 48.695312 41.957031 48.621094 L 46.449219 44.128906 C 46.523438 44.054688 46.558594 43.96875 46.558594 43.863281 C 46.558594 43.761719 46.523438 43.671875 46.449219 43.597656 Z M 33.078125 46.703125 L 30.609375 44.238281 L 41.316406 33.53125 L 43.78125 36 Z M 42.457031 32.390625 C 42.621094 32.226562 42.808594 32.097656 43.023438 32.007812 C 43.238281 31.917969 43.460938 31.875 43.691406 31.875 C 43.925781 31.875 44.148438 31.917969 44.363281 32.007812 C 44.578125 32.09375 44.765625 32.222656 44.929688 32.386719 C 45.09375 32.550781 45.21875 32.738281 45.308594 32.953125 C 45.398438 33.167969 45.441406 33.390625 45.441406 33.621094 C 45.441406 33.855469 45.394531 34.078125 45.304688 34.289062 C 45.214844 34.503906 45.089844 34.691406 44.925781 34.855469 L 44.3125 35.46875 L 41.84375 33.003906 Z M 33.449219 31.660156 L 34.792969 33.003906 L 34.121094 33.675781 C 34.050781 33.746094 34.015625 33.835938 34.015625 33.9375 C 34.015625 34.042969 34.050781 34.128906 34.125 34.203125 C 34.195312 34.273438 34.285156 34.3125 34.386719 34.3125 C 34.492188 34.3125 34.578125 34.277344 34.652344 34.203125 L 35.324219 33.53125 L 36.292969 34.5 L 35.621094 35.171875 C 35.546875 35.246094 35.511719 35.332031 35.511719 35.4375 C 35.511719 35.539062 35.550781 35.628906 35.621094 35.699219 C 35.695312 35.773438 35.78125 35.808594 35.886719 35.808594 C 35.988281 35.808594 36.078125 35.773438 36.148438 35.703125 L 36.820312 35.03125 L 37.789062 36 L 34.949219 38.839844 L 30.609375 34.5 Z M 29.484375 35.625 L 30.082031 35.03125 L 34.417969 39.371094 L 33.824219 39.964844 Z M 30.308594 44.996094 L 32.316406 47.003906 L 29.808594 47.507812 Z M 41.691406 47.828125 L 37.351562 43.488281 L 37.945312 42.894531 L 42.285156 47.234375 Z M 42.8125 46.703125 L 38.476562 42.367188 L 41.316406 39.523438 L 42.285156 40.492188 L 41.613281 41.164062 C 41.539062 41.238281 41.503906 41.324219 41.503906 41.429688 C 41.503906 41.53125 41.542969 41.621094 41.613281 41.691406 C 41.6875 41.765625 41.773438 41.800781 41.878906 41.800781 C 41.980469 41.800781 42.070312 41.765625 42.140625 41.695312 L 42.8125 41.023438 L 43.78125 41.992188 L 43.109375 42.664062 C 43.039062 42.734375 43.003906 42.824219 43.003906 42.925781 C 43.003906 43.03125 43.039062 43.117188 43.113281 43.191406 C 43.183594 43.261719 43.273438 43.300781 43.375 43.300781 C 43.480469 43.300781 43.566406 43.265625 43.640625 43.191406 L 44.3125 42.519531 L 45.65625 43.863281 Z M 42.8125 46.703125 " fill-opacity="1" fill-rule="nonzero"></path></svg>