<svg width="2792" height="2233" viewBox="0 0 2792 2233" fill="none" xmlns="http://www.w3.org/2000/svg">
<path d="M2773.35 2228.29H1606.84V600.36C1606.84 573.486 1628.63 551.701 1655.5 551.701H2742.39C2769.26 551.701 2791.04 573.486 2791.04 600.36V2210.6C2791.04 2220.37 2783.12 2228.29 2773.35 2228.29Z" fill="#F1F1F1"/>
<path d="M2122.46 2233H1090.38V939.631C1090.38 912.757 1112.16 890.972 1139.04 890.972H2073.8C2100.67 890.972 2122.46 912.757 2122.46 939.631V2233Z" fill="#C93438"/>
<path d="M1402.4 2228.29H530.767C520.998 2228.29 513.079 2220.37 513.079 2210.6V1460.19C513.079 1433.32 534.864 1411.53 561.738 1411.53H1353.74C1380.62 1411.53 1402.4 1433.32 1402.4 1460.19V2228.29Z" fill="#F1F1F1"/>
<path d="M890.278 2228.29H18.645C8.87602 2228.29 0.957031 2220.37 0.957031 2210.6V1778.93C0.957031 1752.05 22.742 1730.27 49.616 1730.27H841.619C868.493 1730.27 890.278 1752.05 890.278 1778.93V2228.29Z" fill="#C93438"/>
<path d="M2422.46 503.429H2388.79L2335.85 347.701L2483 338.764L2422.46 503.429Z" fill="#C93438"/>
<path d="M2246.27 58.3749C2246.1 71.5189 2246.1 328.866 2376.74 370.657C2507.38 412.449 2566.39 194.706 2561.71 39.6318L2246.27 58.3749Z" fill="#C93438"/>
<path d="M2510.05 527.054H2301.2V552.411H2510.05V527.054Z" fill="#C93438"/>
<path d="M2510.05 527.054H2301.2L2354.06 498.696H2457.2L2510.05 527.054Z" fill="#C93438"/>
<path d="M2231.13 21.8609C2219.66 22.5589 2210.28 31.048 2210.28 40.727V60.5209C2210.28 70.1989 2219.67 77.6129 2231.14 76.9959L2589.18 57.732C2600.65 57.115 2610.04 48.6909 2610.04 39.0129V16.404C2610.04 6.72498 2600.66 -0.623056 2589.19 0.0749443L2231.13 21.8609Z" fill="#C93438"/>
<path d="M2469.26 391.111C2460.91 391.111 2453.71 385.839 2452.74 378.691C2451.7 371.007 2458.25 364.065 2467.38 363.183C2469.12 363.009 2589.26 350.322 2600.66 284.562C2602.58 273.475 2602.36 258.99 2590.44 252.946C2580.6 247.955 2564.49 249.541 2552.97 256.634C2546.42 260.666 2539.25 267.73 2542.3 278.482C2544.44 286.008 2538.92 293.565 2529.98 295.361C2521.04 297.156 2512.06 292.512 2509.93 284.986C2504.4 265.494 2513.15 246.441 2533.32 234.019C2555.73 220.215 2586.28 218.131 2607.61 228.943C2620.08 235.263 2640.03 251.419 2633.59 288.604C2627.22 325.372 2596.52 354.826 2544.8 373.78C2507.67 387.391 2472.64 390.877 2471.17 391.018C2470.53 391.081 2469.89 391.111 2469.26 391.111Z" fill="#C93438"/>
<path d="M2344.64 391.111C2352.99 391.111 2360.19 385.839 2361.16 378.691C2362.2 371.007 2355.65 364.065 2346.52 363.183C2344.78 363.009 2224.64 350.322 2213.25 284.562C2211.33 273.475 2211.54 258.99 2223.46 252.946C2233.3 247.955 2249.41 249.541 2260.93 256.634C2267.48 260.666 2274.65 267.73 2271.6 278.482C2269.47 286.008 2274.98 293.565 2283.92 295.361C2292.86 297.156 2301.84 292.512 2303.97 284.986C2309.5 265.494 2300.76 246.441 2280.58 234.019C2258.17 220.215 2227.62 218.131 2206.29 228.943C2193.82 235.263 2173.87 251.419 2180.31 288.604C2186.68 325.372 2217.38 354.826 2269.1 373.78C2306.23 387.391 2341.26 390.877 2342.73 391.018C2343.38 391.081 2344.01 391.111 2344.64 391.111Z" fill="#C93438"/>
<path opacity="0.63" d="M2490.84 38.1608C2489.41 38.1608 2488.21 37.0369 2488.13 35.5859C2488.05 34.0859 2489.2 32.8038 2490.7 32.7228L2522.67 31.0038C2524.18 30.9458 2525.46 32.0738 2525.54 33.5748C2525.62 35.0748 2524.47 36.3568 2522.97 36.4378L2490.99 38.1568C2490.94 38.1598 2490.89 38.1608 2490.84 38.1608Z" fill="#C93438"/>
<path opacity="0.63" d="M2246.26 51.3211C2244.82 51.3211 2243.62 50.197 2243.54 48.746C2243.46 47.246 2244.61 45.9641 2246.11 45.8831L2437.13 35.606C2438.63 35.518 2439.92 36.6771 2440 38.1771C2440.08 39.6771 2438.93 40.9591 2437.43 41.0401L2246.41 51.3171C2246.36 51.3191 2246.31 51.3211 2246.26 51.3211Z" fill="#C93438"/>
<path opacity="0.63" d="M2394.17 341.484C2394.06 341.484 2393.96 341.479 2393.85 341.467C2359.26 337.488 2331.61 309.321 2311.66 257.749C2295.19 215.162 2287.42 165.323 2283.8 131.013C2283.64 129.518 2284.72 128.179 2286.22 128.021C2287.72 127.879 2289.05 128.947 2289.21 130.442C2295.43 189.34 2318.12 327.279 2394.47 336.06C2395.97 336.233 2397.04 337.581 2396.87 339.075C2396.71 340.462 2395.53 341.484 2394.17 341.484Z" fill="#C93438"/>
<path opacity="0.63" d="M2284.2 106.538C2282.77 106.538 2281.58 105.432 2281.48 103.994C2280.97 96.1411 2280.84 91.6231 2280.83 91.4351C2280.78 89.9321 2281.97 88.6801 2283.47 88.6341C2285.08 88.5341 2286.23 89.771 2286.27 91.272C2286.27 91.317 2286.41 95.8941 2286.91 103.64C2287.01 105.14 2285.87 106.434 2284.37 106.532C2284.31 106.536 2284.25 106.538 2284.2 106.538Z" fill="#C93438"/>
<path d="M826.081 750.124L756.805 856.701C789.032 919.485 824.828 954.145 860.639 970.621C867.034 931.505 889.878 899.037 906.651 879.751C842.766 843.414 826.081 750.124 826.081 750.124Z" fill="#F1F1F1"/>
<path d="M1064.1 860.618C993.173 902.597 942.485 900.135 906.65 879.751C889.877 899.037 867.033 931.505 860.638 970.621C974.481 1023 1088.48 891.163 1088.48 891.163L1064.1 860.618Z" fill="url(#paint0_linear_84_106)"/>
<path d="M1067.96 878.875C1067.96 878.875 1048.81 845.494 1076.35 819.862C1076.35 819.862 1085.23 809.734 1094.98 824.614C1094.98 824.614 1124.6 797.722 1132.7 808.554C1140.8 819.387 1162.27 846.209 1141.3 876.803C1120.09 907.743 1077.31 893.953 1067.96 878.875Z" fill="url(#paint1_linear_84_106)"/>
<path d="M1097.07 860.294C1094.25 860.294 1091.22 859.771 1088.54 858.183C1085.92 856.635 1082.63 853.403 1081.79 846.796C1081.54 844.898 1082.89 843.162 1084.79 842.92C1086.67 842.692 1088.42 844.02 1088.66 845.92C1089.06 849.031 1090.17 851.089 1092.05 852.212C1094.68 853.779 1098.59 853.459 1101.49 852.835L1094.78 831.554C1094.2 829.729 1095.22 827.783 1097.04 827.208C1098.86 826.629 1100.81 827.645 1101.39 829.47L1109.16 854.121C1109.71 855.859 1108.82 857.722 1107.12 858.388C1106.4 858.668 1102.05 860.294 1097.07 860.294Z" fill="#F79E6D"/>
<path d="M60.265 1576.36C54.1 1580.07 50.95 1587.89 52.42 1595.55C58.202 1625.68 77.2091 1705.28 123.379 1752.4C126.428 1755.51 130.864 1755.24 133.545 1752.43C121.854 1740.25 107.358 1719.43 90.412 1684.07C64.368 1629.73 59.545 1596.22 60.265 1576.36Z" fill="#29292B"/>
<path d="M119.883 1575.24C119.883 1575.24 90.1141 1559.05 60.4731 1576.22C60.3991 1576.26 60.3381 1576.32 60.2661 1576.37C59.5461 1596.22 64.3691 1629.73 90.4131 1684.07C107.358 1719.43 121.854 1740.25 133.546 1752.43C134.394 1751.54 135.077 1750.42 135.472 1749.04C144.143 1718.92 162.455 1635.2 119.883 1575.24Z" fill="#1E1E1E"/>
<path d="M162.879 1577.11L135.902 1603C131.13 1607.57 123.813 1608.31 118.304 1604.65C113.498 1601.46 108.149 1596.23 104.588 1587.75C102.451 1582.67 103.477 1576.78 107.189 1572.7L134.121 1543.07C140.549 1536 151.985 1537.17 156.849 1545.4L165.27 1559.64C168.625 1565.31 167.635 1572.55 162.879 1577.11Z" fill="url(#paint2_linear_84_106)"/>
<path d="M1034.8 1447.28C1041.07 1450.81 1049.42 1449.68 1055.35 1444.62C1078.69 1424.7 1138.49 1368.84 1156.64 1305.41C1157.83 1301.22 1155.4 1297.5 1151.64 1296.56C1146.83 1312.74 1135.89 1335.63 1113.53 1367.84C1079.16 1417.34 1052.41 1438.1 1034.8 1447.28Z" fill="#29292B"/>
<path d="M1004.35 1396.01C1004.35 1396.01 1004.99 1429.89 1034.57 1447.17C1034.64 1447.22 1034.72 1447.24 1034.8 1447.28C1052.41 1438.1 1079.16 1417.34 1113.53 1367.84C1135.89 1335.63 1146.83 1312.74 1151.64 1296.56C1150.45 1296.26 1149.13 1296.22 1147.74 1296.56C1117.26 1303.91 1035.44 1329.36 1004.35 1396.01Z" fill="#1E1E1E"/>
<path d="M1002.26 1339.91L1030.45 1364.46C1035.44 1368.81 1036.83 1376.03 1033.68 1381.84C1030.93 1386.91 1026.2 1392.71 1018.07 1397.01C1013.2 1399.6 1007.24 1399.1 1002.84 1395.77L970.93 1371.59C963.313 1365.82 963.457 1354.32 971.215 1348.75L984.649 1339.08C990 1335.24 997.296 1335.58 1002.26 1339.91Z" fill="url(#paint3_linear_84_106)"/>
<path d="M436.696 1091.36C436.696 1091.36 381.692 1278.75 346.131 1361.11C346.131 1361.11 283.967 1370.59 245.491 1393.07C207.016 1415.55 124.14 1540.15 124.14 1540.15C124.14 1540.15 145.783 1581.24 171.897 1587.54L407.82 1424.08L596.108 1205.11L587.171 1103.55L436.696 1091.36Z" fill="#C93438"/>
<path d="M440.085 1076.08L423.99 1127.39C423.99 1127.39 438.712 1261.92 608.312 1239.24C777.913 1216.55 799.229 1188.86 799.229 1188.86C799.229 1188.86 784.506 1274.78 969.958 1378.09C969.958 1378.09 998.147 1356.81 1004.35 1332.64L874.391 1118.44C856.314 1090.35 839.55 1082.95 806.542 1088.11C733.556 1099.52 596.891 1114.4 576.208 1110.87L440.085 1076.08Z" fill="#C93438"/>
<path d="M572.546 694.505C523.12 697.019 444.994 720.514 394.527 766.974C410.039 784.097 433.907 811.939 451.698 839.441C467.595 824.515 490.425 812.084 522.568 804.122C494.785 907.959 461.946 1006.89 421.928 1098.85C419.424 1104.6 422.276 1111.26 428.203 1113.32C459.169 1124.11 550.488 1149.82 623.732 1108.43L786.116 875.91C803.58 850.904 815.059 822.218 819.669 792.068L826.081 750.123C826.081 750.123 680.242 689.029 572.546 694.505Z" fill="#F1F1F1"/>
<path d="M483.985 1046.36C476.927 1030.78 452.766 1016.22 441.234 1009.96C431.202 989.282 391.158 896.277 451.698 839.44C433.907 811.938 410.039 784.096 394.527 766.973C336.299 820.579 314.983 904.788 417.092 1022.69C411.519 1051.73 429.704 1085.55 439.537 1090.29C444.068 1092.48 493.365 1067.07 483.985 1046.36Z" fill="url(#paint4_linear_84_106)"/>
<path d="M682.231 632.746L639.807 715.784C637.219 720.849 637.989 726.972 641.789 731.205C652.062 742.647 676.324 761.231 718.527 747.912C723.18 746.444 726.529 742.353 727.236 737.526L738.284 662.112L682.231 632.746Z" fill="url(#paint5_linear_84_106)"/>
<path d="M752.957 536.324C752.957 536.324 777.84 593.484 779.511 623.485C781.182 653.486 787.647 672.953 752.957 678.995C718.268 685.036 689.045 667.756 673.213 637.871C673.213 637.871 648.408 591.822 653.972 572.963C659.537 554.105 752.957 536.324 752.957 536.324Z" fill="url(#paint6_linear_84_106)"/>
<path d="M685.067 616.384L687.042 615.514C689.556 614.406 690.631 611.413 689.368 608.973C684.477 599.522 674.94 577.863 687.26 572.811C703.136 566.3 766.025 553.475 779.594 531.16C792.634 509.713 781.08 482.029 763.715 474.155C762.553 473.628 761.183 474.046 760.587 475.174L759.14 477.912C758.149 479.787 755.381 479.502 754.792 477.466C754.226 475.511 751.626 475.132 750.547 476.858C746.376 483.534 735.116 494.358 705.003 499.915C662.208 507.813 633.914 525.132 633.21 554.704C633.165 556.583 631.167 557.627 629.562 556.649C626.402 554.723 621.346 553.819 614.588 559.502C602.836 569.384 607.645 595.02 633.409 616.107C634.633 617.109 634.623 619.02 633.298 619.882C628.627 622.923 621.664 630.157 639.706 639.801C658.368 649.777 672.303 648.958 677.669 648.073C679.004 647.853 679.864 646.561 679.573 645.239L673.846 619.248C673.522 617.777 674.642 616.383 676.148 616.383L685.067 616.384Z" fill="#464648"/>
<path d="M686.145 621.869C686.145 621.869 676.652 585.357 660.282 595.594C643.912 605.832 668.777 636.505 681.938 637.871L686.145 621.869Z" fill="url(#paint7_linear_84_106)"/>
<defs>
<linearGradient id="paint0_linear_84_106" x1="1115.95" y1="841.336" x2="595.478" y2="1093.47" gradientUnits="userSpaceOnUse">
<stop stop-color="#FEBBBA"/>
<stop offset="1" stop-color="#FF928E"/>
</linearGradient>
<linearGradient id="paint1_linear_84_106" x1="1118.43" y1="846.46" x2="597.96" y2="1098.59" gradientUnits="userSpaceOnUse">
<stop stop-color="#FEBBBA"/>
<stop offset="1" stop-color="#FF928E"/>
</linearGradient>
<linearGradient id="paint2_linear_84_106" x1="103.486" y1="1572.7" x2="167.248" y2="1572.7" gradientUnits="userSpaceOnUse">
<stop stop-color="#FEBBBA"/>
<stop offset="1" stop-color="#FF928E"/>
</linearGradient>
<linearGradient id="paint3_linear_84_106" x1="965.306" y1="1367.54" x2="1035.36" y2="1367.54" gradientUnits="userSpaceOnUse">
<stop stop-color="#FEBBBA"/>
<stop offset="1" stop-color="#FF928E"/>
</linearGradient>
<linearGradient id="paint4_linear_84_106" x1="470.031" y1="1011.53" x2="160.27" y2="464.045" gradientUnits="userSpaceOnUse">
<stop stop-color="#FEBBBA"/>
<stop offset="1" stop-color="#FF928E"/>
</linearGradient>
<linearGradient id="paint5_linear_84_106" x1="665.849" y1="777.229" x2="698.266" y2="684.781" gradientUnits="userSpaceOnUse">
<stop stop-color="#FEBBBA"/>
<stop offset="1" stop-color="#FF928E"/>
</linearGradient>
<linearGradient id="paint6_linear_84_106" x1="758.173" y1="586.637" x2="615.926" y2="695.477" gradientUnits="userSpaceOnUse">
<stop stop-color="#FEBBBA"/>
<stop offset="1" stop-color="#FF928E"/>
</linearGradient>
<linearGradient id="paint7_linear_84_106" x1="740.529" y1="563.578" x2="598.282" y2="672.418" gradientUnits="userSpaceOnUse">
<stop stop-color="#FEBBBA"/>
<stop offset="1" stop-color="#FF928E"/>
</linearGradient>
</defs>
</svg>
