<svg xmlns="http://www.w3.org/2000/svg" xmlns:xlink="http://www.w3.org/1999/xlink" width="100" viewBox="0 0 75 74.999997" height="100" preserveAspectRatio="xMidYMid meet"><defs><clipPath id="6a6e2dcbb5"><path d="M 19.894531 22.507812 L 55.894531 22.507812 L 55.894531 54.007812 L 19.894531 54.007812 Z M 19.894531 22.507812 " clip-rule="nonzero"></path></clipPath></defs><path stroke-linecap="butt" transform="matrix(0.749992, 0.0033656, -0.0033656, 0.749992, 8.028285, 7.500013)" fill="none" stroke-linejoin="miter" d="M 0.000988982 0.499983 L 24.709567 0.498479 " stroke="#c93438" stroke-width="1" stroke-opacity="1" stroke-miterlimit="4"></path><path stroke-linecap="butt" transform="matrix(0, -0.75, 0.75, 0, 7.646721, 26.030549)" fill="none" stroke-linejoin="miter" d="M -0.000935261 0.502289 L 24.712608 0.502289 " stroke="#c93438" stroke-width="1" stroke-opacity="1" stroke-miterlimit="4"></path><path stroke-linecap="butt" transform="matrix(0.749992, 0.0033656, -0.0033656, 0.749992, 48.966439, 66.666834)" fill="none" stroke-linejoin="miter" d="M 0.000123412 0.501518 L 24.713909 0.499991 " stroke="#c93438" stroke-width="1" stroke-opacity="1" stroke-miterlimit="4"></path><path stroke-linecap="butt" transform="matrix(0, -0.75, 0.75, 0, 66.745119, 67.496785)" fill="none" stroke-linejoin="miter" d="M 0.00092125 0.501299 L 24.709257 0.501299 " stroke="#c93438" stroke-width="1" stroke-opacity="1" stroke-miterlimit="4"></path><path fill="#ffffff" d="M 47.742188 33.976562 C 46.6875 33.949219 45.664062 33.976562 44.609375 33.976562 L 31.175781 33.976562 C 29.980469 33.976562 28.8125 33.976562 27.617188 33.976562 C 26.023438 33.949219 24.683594 35.257812 24.65625 36.851562 C 24.628906 38.132812 25.480469 39.300781 26.707031 39.671875 C 27.160156 39.785156 27.644531 39.8125 28.101562 39.785156 L 47.710938 39.785156 C 47.710938 39.785156 47.742188 39.785156 47.742188 39.785156 C 49.335938 39.785156 50.644531 38.476562 50.644531 36.882812 C 50.644531 35.289062 49.335938 33.976562 47.742188 33.976562 Z M 49.90625 37.109375 C 49.789062 38.21875 48.851562 39.074219 47.742188 39.101562 C 47.742188 39.101562 47.710938 39.101562 47.710938 39.101562 L 27.929688 39.101562 C 27.359375 39.160156 26.792969 39.015625 26.308594 38.730469 C 25.3125 38.019531 25.054688 36.652344 25.765625 35.628906 C 25.9375 35.371094 26.195312 35.144531 26.449219 34.972656 C 26.90625 34.746094 27.445312 34.632812 27.957031 34.691406 L 47.03125 34.691406 C 47.3125 34.691406 47.628906 34.660156 47.910156 34.691406 C 49.136719 34.832031 50.019531 35.914062 49.90625 37.109375 Z M 49.90625 37.109375 " fill-opacity="1" fill-rule="nonzero"></path><path fill="#ffffff" d="M 47.144531 37.222656 C 47.457031 36.824219 47.484375 36.285156 47.199219 35.828125 C 47.171875 35.769531 47.144531 35.742188 47.113281 35.714844 C 46.972656 35.570312 46.800781 35.429688 46.601562 35.371094 C 46.375 35.289062 46.148438 35.289062 45.917969 35.34375 C 45.691406 35.402344 45.492188 35.542969 45.320312 35.714844 C 45.152344 35.914062 45.066406 36.140625 45.035156 36.425781 C 45.007812 36.910156 45.265625 37.367188 45.691406 37.566406 C 45.917969 37.679688 46.175781 37.707031 46.433594 37.679688 C 46.460938 37.679688 46.515625 37.648438 46.546875 37.648438 L 46.914062 38.191406 L 47 38.304688 C 47.058594 38.390625 47.113281 38.445312 47.230469 38.476562 C 47.3125 38.503906 47.429688 38.503906 47.511719 38.445312 C 47.597656 38.390625 47.65625 38.332031 47.683594 38.246094 C 47.710938 38.164062 47.710938 38.046875 47.65625 37.964844 Z M 46.601562 36.796875 C 46.574219 36.824219 46.546875 36.851562 46.601562 36.796875 Z M 46.289062 36.9375 C 46.261719 36.9375 46.261719 36.9375 46.289062 36.9375 C 46.261719 36.9375 46.261719 36.9375 46.289062 36.9375 L 46.117188 36.9375 L 46.0625 36.910156 C 46.0625 36.910156 46.035156 36.882812 46.035156 36.910156 C 46.035156 36.910156 46.003906 36.910156 46.003906 36.882812 L 45.949219 36.851562 C 45.890625 36.796875 45.890625 36.796875 45.863281 36.765625 C 45.863281 36.738281 45.835938 36.738281 45.835938 36.710938 C 45.835938 36.710938 45.804688 36.683594 45.804688 36.683594 C 45.804688 36.652344 45.777344 36.625 45.777344 36.566406 C 45.777344 36.566406 45.777344 36.539062 45.777344 36.539062 C 45.777344 36.511719 45.777344 36.484375 45.777344 36.453125 C 45.777344 36.453125 45.777344 36.425781 45.777344 36.425781 C 45.777344 36.398438 45.777344 36.367188 45.804688 36.339844 C 45.804688 36.3125 45.835938 36.3125 45.835938 36.285156 L 45.863281 36.226562 C 45.804688 36.285156 45.863281 36.226562 45.863281 36.199219 C 45.863281 36.167969 45.890625 36.167969 45.917969 36.140625 L 45.949219 36.113281 C 45.976562 36.085938 46.003906 36.085938 46.035156 36.054688 C 46.0625 36.054688 46.0625 36.054688 46.089844 36.027344 L 46.148438 36.027344 C 46.175781 36.027344 46.203125 36.027344 46.234375 36.027344 L 46.289062 36.027344 L 46.347656 36.054688 C 46.402344 36.054688 46.433594 36.085938 46.460938 36.113281 L 46.488281 36.140625 C 46.515625 36.167969 46.515625 36.167969 46.546875 36.199219 C 46.574219 36.226562 46.574219 36.253906 46.601562 36.285156 C 46.601562 36.3125 46.632812 36.3125 46.632812 36.339844 C 46.632812 36.367188 46.632812 36.453125 46.660156 36.453125 C 46.660156 36.453125 46.660156 36.484375 46.660156 36.484375 C 46.660156 36.484375 46.660156 36.484375 46.660156 36.511719 C 46.660156 36.511719 46.660156 36.539062 46.660156 36.539062 C 46.660156 36.539062 46.660156 36.539062 46.660156 36.566406 L 46.632812 36.625 L 46.632812 36.652344 C 46.601562 36.710938 46.601562 36.710938 46.574219 36.738281 C 46.574219 36.738281 46.546875 36.765625 46.546875 36.765625 L 46.515625 36.796875 C 46.515625 36.796875 46.515625 36.796875 46.488281 36.824219 C 46.488281 36.824219 46.460938 36.824219 46.460938 36.824219 L 46.402344 36.851562 C 46.402344 36.851562 46.402344 36.851562 46.375 36.851562 C 46.375 36.851562 46.347656 36.851562 46.347656 36.851562 C 46.375 36.9375 46.347656 36.9375 46.289062 36.9375 Z M 46.289062 36.9375 " fill-opacity="1" fill-rule="nonzero"></path><path fill="#ffffff" d="M 31.089844 35.886719 C 31.0625 35.914062 31.003906 35.96875 31.003906 36.027344 C 30.976562 36.085938 30.945312 36.140625 30.945312 36.226562 L 30.746094 36.851562 L 30.605469 36.285156 C 30.578125 36.167969 30.546875 36.085938 30.519531 36.054688 C 30.492188 36 30.433594 35.914062 30.378906 35.886719 C 30.207031 35.742188 29.980469 35.742188 29.808594 35.886719 C 29.75 35.941406 29.695312 36 29.667969 36.054688 C 29.636719 36.113281 29.609375 36.167969 29.582031 36.3125 L 29.4375 36.851562 L 29.269531 36.226562 C 29.238281 36.140625 29.210938 36.027344 29.152344 35.941406 C 29.097656 35.828125 28.953125 35.769531 28.839844 35.800781 C 28.726562 35.800781 28.640625 35.828125 28.554688 35.914062 C 28.472656 35.96875 28.441406 36.085938 28.441406 36.167969 C 28.441406 36.253906 28.472656 36.367188 28.5 36.453125 L 28.925781 37.679688 L 28.984375 37.820312 C 29.011719 37.878906 29.039062 37.933594 29.070312 37.992188 C 29.097656 38.046875 29.152344 38.105469 29.210938 38.132812 C 29.269531 38.164062 29.351562 38.191406 29.4375 38.191406 C 29.582031 38.21875 29.75 38.132812 29.835938 38.019531 C 29.894531 37.90625 29.949219 37.792969 29.980469 37.679688 L 30.121094 37.195312 L 30.265625 37.679688 C 30.292969 37.765625 30.320312 37.847656 30.347656 37.90625 C 30.378906 37.992188 30.433594 38.046875 30.492188 38.105469 C 30.664062 38.21875 30.890625 38.21875 31.0625 38.105469 C 31.117188 38.046875 31.175781 37.992188 31.203125 37.933594 C 31.230469 37.878906 31.261719 37.820312 31.289062 37.707031 L 31.714844 36.484375 C 31.746094 36.398438 31.773438 36.285156 31.773438 36.199219 C 31.773438 36.085938 31.714844 36 31.628906 35.914062 C 31.488281 35.742188 31.261719 35.742188 31.089844 35.886719 Z M 31.089844 35.886719 " fill-opacity="1" fill-rule="nonzero"></path><path fill="#ffffff" d="M 34.761719 35.886719 C 34.703125 35.914062 34.675781 35.96875 34.648438 36.054688 C 34.648438 36.085938 34.621094 36.167969 34.589844 36.253906 L 34.390625 36.882812 L 34.25 36.3125 C 34.21875 36.226562 34.191406 36.140625 34.164062 36.085938 C 34.136719 36.027344 34.078125 35.941406 34.019531 35.914062 C 33.851562 35.800781 33.621094 35.800781 33.453125 35.914062 C 33.394531 35.96875 33.339844 36.027344 33.308594 36.085938 C 33.308594 36.140625 33.253906 36.199219 33.222656 36.339844 L 33.082031 36.882812 L 32.910156 36.253906 C 32.882812 36.167969 32.855469 36.054688 32.796875 35.96875 C 32.742188 35.855469 32.597656 35.800781 32.484375 35.828125 C 32.371094 35.828125 32.285156 35.855469 32.199219 35.941406 C 32.144531 35.96875 32.113281 36.054688 32.113281 36.140625 C 32.113281 36.226562 32.144531 36.339844 32.171875 36.425781 L 32.597656 37.648438 L 32.65625 37.792969 C 32.683594 37.847656 32.710938 37.90625 32.742188 37.964844 C 32.824219 38.105469 32.96875 38.164062 33.109375 38.164062 C 33.253906 38.164062 33.394531 38.105469 33.480469 37.992188 C 33.539062 37.878906 33.59375 37.765625 33.621094 37.648438 L 33.765625 37.167969 L 33.90625 37.648438 C 33.9375 37.734375 33.964844 37.820312 33.992188 37.878906 C 34.019531 37.964844 34.078125 38.019531 34.136719 38.078125 C 34.304688 38.191406 34.535156 38.191406 34.703125 38.078125 C 34.761719 38.019531 34.820312 37.964844 34.847656 37.90625 C 34.875 37.847656 34.902344 37.792969 34.933594 37.679688 L 35.359375 36.453125 C 35.386719 36.367188 35.417969 36.253906 35.417969 36.167969 C 35.417969 36.085938 35.386719 36 35.300781 35.914062 C 35.132812 35.769531 34.933594 35.769531 34.761719 35.886719 Z M 34.761719 35.886719 " fill-opacity="1" fill-rule="nonzero"></path><path fill="#ffffff" d="M 38.945312 35.914062 C 38.804688 35.769531 38.546875 35.769531 38.40625 35.914062 C 38.375 35.941406 38.320312 36 38.320312 36.054688 C 38.320312 36.085938 38.292969 36.167969 38.261719 36.253906 L 38.0625 36.882812 L 37.890625 36.3125 C 37.863281 36.226562 37.835938 36.140625 37.808594 36.085938 C 37.777344 36.027344 37.722656 35.941406 37.664062 35.914062 C 37.492188 35.800781 37.265625 35.800781 37.09375 35.914062 C 37.039062 35.96875 36.980469 36.027344 36.953125 36.085938 C 36.925781 36.140625 36.925781 36.199219 36.867188 36.339844 L 36.695312 36.882812 L 36.527344 36.253906 C 36.496094 36.167969 36.46875 36.054688 36.414062 35.96875 C 36.355469 35.855469 36.214844 35.800781 36.097656 35.828125 C 35.984375 35.828125 35.898438 35.855469 35.816406 35.941406 C 35.730469 36 35.699219 36.113281 35.699219 36.199219 C 35.699219 36.285156 35.730469 36.398438 35.757812 36.484375 L 36.183594 37.707031 L 36.242188 37.847656 C 36.269531 37.90625 36.296875 37.964844 36.328125 38.019531 C 36.414062 38.164062 36.554688 38.21875 36.695312 38.21875 C 36.839844 38.21875 36.980469 38.164062 37.066406 38.046875 C 37.125 37.933594 37.179688 37.820312 37.210938 37.707031 L 37.351562 37.222656 L 37.492188 37.707031 C 37.523438 37.792969 37.550781 37.878906 37.578125 37.933594 C 37.609375 38.019531 37.664062 38.078125 37.722656 38.132812 C 37.808594 38.191406 37.890625 38.246094 38.007812 38.21875 C 38.121094 38.21875 38.207031 38.191406 38.292969 38.132812 C 38.347656 38.078125 38.40625 38.019531 38.433594 37.964844 C 38.460938 37.90625 38.492188 37.820312 38.519531 37.734375 L 38.945312 36.511719 C 38.972656 36.425781 39.003906 36.3125 39.003906 36.226562 C 39.058594 36.054688 39.03125 35.96875 38.945312 35.914062 Z M 38.945312 35.914062 " fill-opacity="1" fill-rule="nonzero"></path><path fill="#ffffff" d="M 39.144531 37.449219 C 39.058594 37.535156 39.003906 37.648438 39.03125 37.765625 C 39.03125 37.878906 39.089844 38.019531 39.171875 38.105469 C 39.257812 38.191406 39.371094 38.21875 39.488281 38.21875 C 39.601562 38.21875 39.714844 38.191406 39.800781 38.105469 C 39.886719 38.019531 39.941406 37.90625 39.941406 37.765625 C 39.941406 37.648438 39.886719 37.535156 39.800781 37.449219 C 39.570312 37.28125 39.316406 37.28125 39.144531 37.449219 Z M 39.144531 37.449219 " fill-opacity="1" fill-rule="nonzero"></path><g clip-path="url(#6a6e2dcbb5)"><path fill="#ffffff" d="M 54.175781 22.59375 C 53.832031 22.535156 53.460938 22.507812 53.121094 22.535156 L 22.492188 22.535156 C 22.125 22.507812 21.78125 22.535156 21.410156 22.621094 C 20.386719 22.90625 19.902344 23.84375 19.902344 24.839844 L 19.902344 45.847656 C 19.902344 46.816406 20.300781 47.699219 21.269531 48.039062 C 21.695312 48.152344 22.152344 48.210938 22.605469 48.152344 L 45.351562 48.152344 L 45.890625 52.765625 L 46.003906 53.816406 C 46.035156 54.128906 46.515625 54.359375 46.660156 53.988281 L 48.308594 50.402344 L 52.125 50.773438 C 52.210938 50.828125 52.296875 50.800781 52.382812 50.773438 C 52.550781 50.714844 52.609375 50.542969 52.582031 50.375 C 52.582031 50.289062 52.523438 50.203125 52.4375 50.117188 L 49.761719 48.125 L 53.179688 48.125 C 53.578125 48.152344 54.003906 48.097656 54.375 47.984375 C 55.3125 47.613281 55.710938 46.730469 55.710938 45.789062 L 55.710938 24.8125 C 55.710938 23.789062 55.199219 22.847656 54.175781 22.59375 Z M 20.613281 24.585938 C 20.613281 23.875 21.15625 23.277344 21.867188 23.21875 C 22.664062 23.160156 23.460938 23.21875 24.230469 23.21875 L 51.15625 23.21875 C 51.980469 23.21875 52.808594 23.191406 53.660156 23.21875 C 54.402344 23.21875 55 23.816406 55.027344 24.585938 L 55.027344 27.203125 L 24.570312 27.203125 C 23.261719 27.203125 21.925781 27.148438 20.613281 27.203125 L 20.613281 24.925781 C 20.613281 24.8125 20.613281 24.699219 20.613281 24.585938 Z M 47.796875 49.832031 L 46.574219 52.480469 L 45.863281 46.359375 L 45.835938 46.074219 L 48.425781 48.011719 C 48.425781 48.011719 48.453125 48.039062 48.480469 48.039062 L 51.015625 49.917969 L 48.082031 49.632812 C 47.96875 49.660156 47.855469 49.71875 47.796875 49.832031 Z M 55 46.019531 C 55 46.617188 54.601562 47.15625 54.03125 47.355469 C 53.691406 47.414062 53.347656 47.441406 53.007812 47.414062 L 48.792969 47.414062 L 46.402344 45.648438 L 45.550781 45.023438 C 45.378906 44.9375 45.152344 44.992188 45.066406 45.164062 C 45.035156 45.222656 45.007812 45.277344 45.007812 45.335938 L 45.238281 47.441406 L 22.804688 47.441406 C 22.523438 47.441406 22.238281 47.441406 21.980469 47.441406 C 21.242188 47.441406 20.644531 46.84375 20.613281 46.074219 C 20.613281 45.988281 20.613281 45.875 20.613281 45.789062 L 20.613281 27.914062 L 51.042969 27.914062 C 52.351562 27.914062 53.691406 27.972656 55 27.914062 L 55 45.648438 C 55 45.789062 55 45.90625 55 46.019531 Z M 55 46.019531 " fill-opacity="1" fill-rule="nonzero"></path></g><path fill="#ffffff" d="M 24.402344 26.148438 C 24.601562 25.921875 24.683594 25.667969 24.683594 25.382812 C 24.683594 24.871094 24.371094 24.414062 23.886719 24.242188 C 23.433594 24.074219 22.890625 24.214844 22.578125 24.585938 C 22.152344 25.097656 22.207031 25.835938 22.691406 26.292969 C 23.203125 26.71875 23.945312 26.664062 24.402344 26.148438 Z M 23.972656 25.296875 C 23.972656 25.324219 23.972656 25.324219 23.972656 25.324219 C 23.972656 25.324219 23.972656 25.324219 23.972656 25.296875 Z M 22.976562 25.324219 C 22.976562 25.296875 22.976562 25.296875 22.976562 25.269531 C 22.976562 25.238281 23.003906 25.183594 23.003906 25.152344 C 23.003906 25.125 23.035156 25.125 23.035156 25.097656 C 23.035156 25.070312 23.0625 25.070312 23.0625 25.039062 C 23.089844 25.011719 23.121094 24.984375 23.148438 24.953125 L 23.175781 24.953125 C 23.148438 24.984375 23.175781 24.953125 23.203125 24.953125 C 23.234375 24.925781 23.289062 24.925781 23.320312 24.898438 C 23.320312 24.898438 23.234375 24.925781 23.289062 24.898438 L 23.347656 24.871094 L 23.375 24.871094 C 23.375 24.871094 23.375 24.871094 23.402344 24.871094 C 23.402344 24.871094 23.433594 24.871094 23.433594 24.871094 L 23.546875 24.871094 L 23.6875 24.898438 C 23.746094 24.925781 23.746094 24.925781 23.746094 24.925781 L 23.859375 25.039062 L 23.886719 25.097656 C 23.886719 25.125 23.917969 25.125 23.917969 25.152344 C 23.917969 25.210938 23.945312 25.210938 23.945312 25.238281 C 23.945312 25.269531 23.917969 25.296875 23.917969 25.324219 C 23.917969 25.351562 23.917969 25.351562 23.917969 25.382812 C 23.917969 25.382812 23.886719 25.46875 23.886719 25.496094 C 23.886719 25.496094 23.886719 25.523438 23.886719 25.523438 C 23.886719 25.523438 23.886719 25.523438 23.859375 25.550781 C 23.832031 25.582031 23.800781 25.636719 23.800781 25.667969 C 23.800781 25.667969 23.773438 25.695312 23.773438 25.695312 C 23.773438 25.695312 23.746094 25.722656 23.746094 25.722656 C 23.71875 25.722656 23.6875 25.78125 23.660156 25.78125 L 23.632812 25.808594 L 23.519531 25.835938 C 23.519531 25.835938 23.488281 25.835938 23.488281 25.835938 C 23.488281 25.835938 23.460938 25.835938 23.460938 25.835938 C 23.433594 25.835938 23.402344 25.835938 23.347656 25.835938 L 23.289062 25.835938 L 23.234375 25.808594 C 23.175781 25.78125 23.261719 25.808594 23.261719 25.808594 C 23.234375 25.78125 23.203125 25.78125 23.175781 25.75 L 23.121094 25.722656 C 23.0625 25.667969 23.0625 25.667969 23.035156 25.636719 L 23.003906 25.582031 L 23.003906 25.523438 C 22.976562 25.496094 23.003906 25.496094 23.003906 25.550781 C 23.003906 25.523438 22.976562 25.46875 22.976562 25.4375 L 22.976562 25.382812 C 22.976562 25.382812 22.976562 25.351562 22.976562 25.324219 Z M 22.976562 25.324219 " fill-opacity="1" fill-rule="nonzero"></path><path fill="#ffffff" d="M 22.976562 25.324219 C 23.003906 25.238281 22.976562 25.296875 22.976562 25.324219 Z M 22.976562 25.324219 " fill-opacity="1" fill-rule="nonzero"></path><path fill="#ffffff" d="M 23.488281 25.867188 L 23.519531 25.867188 C 23.519531 25.835938 23.488281 25.835938 23.488281 25.867188 Z M 23.488281 25.867188 " fill-opacity="1" fill-rule="nonzero"></path><path fill="#ffffff" d="M 25.851562 25.296875 C 25.878906 25.210938 25.851562 25.269531 25.851562 25.296875 Z M 25.851562 25.296875 " fill-opacity="1" fill-rule="nonzero"></path><path fill="#ffffff" d="M 27.273438 26.148438 C 27.472656 25.921875 27.558594 25.667969 27.558594 25.382812 C 27.558594 24.871094 27.21875 24.414062 26.761719 24.242188 C 26.308594 24.074219 25.765625 24.214844 25.453125 24.585938 C 25.027344 25.097656 25.082031 25.835938 25.566406 26.292969 C 26.078125 26.71875 26.847656 26.664062 27.273438 26.148438 Z M 26.847656 25.296875 C 26.847656 25.324219 26.847656 25.324219 26.847656 25.324219 C 26.847656 25.296875 26.847656 25.296875 26.847656 25.296875 Z M 25.851562 25.296875 C 25.851562 25.269531 25.851562 25.269531 25.851562 25.238281 C 25.851562 25.210938 25.878906 25.152344 25.878906 25.125 L 25.910156 25.070312 L 25.9375 25.011719 C 25.964844 24.953125 25.9375 25.011719 25.9375 25.011719 C 25.964844 24.984375 25.996094 24.953125 26.023438 24.925781 C 26.023438 24.925781 26.050781 24.925781 26.050781 24.925781 C 26.078125 24.898438 26.136719 24.898438 26.164062 24.871094 C 26.164062 24.871094 26.078125 24.898438 26.136719 24.871094 L 26.195312 24.839844 L 26.222656 24.839844 C 26.222656 24.839844 26.222656 24.839844 26.25 24.839844 C 26.25 24.839844 26.277344 24.839844 26.277344 24.839844 L 26.421875 24.839844 L 26.5625 24.871094 C 26.621094 24.898438 26.621094 24.898438 26.621094 24.898438 L 26.648438 24.925781 L 26.675781 24.925781 L 26.761719 25.011719 L 26.792969 25.070312 L 26.820312 25.125 C 26.847656 25.183594 26.847656 25.210938 26.847656 25.238281 C 26.847656 25.269531 26.820312 25.296875 26.820312 25.324219 C 26.820312 25.351562 26.820312 25.351562 26.820312 25.382812 C 26.820312 25.410156 26.792969 25.46875 26.792969 25.496094 C 26.792969 25.496094 26.792969 25.523438 26.792969 25.523438 C 26.792969 25.523438 26.792969 25.523438 26.761719 25.550781 C 26.734375 25.609375 26.707031 25.636719 26.707031 25.667969 C 26.707031 25.667969 26.675781 25.695312 26.675781 25.695312 L 26.648438 25.722656 C 26.621094 25.722656 26.5625 25.78125 26.5625 25.78125 L 26.535156 25.78125 L 26.421875 25.835938 C 26.421875 25.835938 26.394531 25.835938 26.394531 25.835938 C 26.394531 25.835938 26.363281 25.835938 26.363281 25.835938 C 26.335938 25.835938 26.277344 25.835938 26.25 25.835938 L 26.195312 25.808594 L 26.136719 25.808594 C 26.078125 25.78125 26.164062 25.808594 26.164062 25.808594 C 26.136719 25.78125 26.109375 25.78125 26.050781 25.75 C 26.050781 25.75 26.023438 25.722656 25.996094 25.722656 C 25.996094 25.722656 25.910156 25.636719 25.910156 25.636719 L 25.878906 25.609375 L 25.851562 25.582031 C 25.851562 25.582031 25.824219 25.496094 25.824219 25.46875 C 25.824219 25.4375 25.824219 25.4375 25.824219 25.410156 C 25.851562 25.382812 25.851562 25.324219 25.851562 25.296875 Z M 25.851562 25.296875 " fill-opacity="1" fill-rule="nonzero"></path><path fill="#ffffff" d="M 30.179688 26.148438 C 30.378906 25.921875 30.464844 25.667969 30.464844 25.382812 C 30.464844 24.871094 30.148438 24.414062 29.667969 24.242188 C 29.210938 24.074219 28.671875 24.214844 28.355469 24.585938 C 27.929688 25.097656 27.988281 25.835938 28.472656 26.292969 C 28.984375 26.71875 29.722656 26.664062 30.179688 26.148438 Z M 29.75 25.296875 Z M 28.753906 25.296875 L 28.753906 25.238281 C 28.753906 25.210938 28.785156 25.152344 28.785156 25.125 L 28.8125 25.070312 C 28.8125 25.039062 28.839844 25.039062 28.839844 25.011719 C 28.871094 24.984375 28.898438 24.953125 28.925781 24.925781 L 28.953125 24.898438 C 28.925781 24.925781 28.953125 24.898438 28.984375 24.898438 C 29.011719 24.871094 29.070312 24.871094 29.097656 24.839844 C 29.097656 24.839844 29.011719 24.871094 29.070312 24.839844 L 29.125 24.8125 L 29.152344 24.8125 C 29.152344 24.8125 29.152344 24.8125 29.183594 24.8125 C 29.183594 24.8125 29.210938 24.8125 29.210938 24.8125 L 29.324219 24.8125 L 29.46875 24.839844 C 29.496094 24.839844 29.523438 24.871094 29.523438 24.871094 L 29.550781 24.953125 L 29.636719 25.039062 L 29.667969 25.097656 L 29.695312 25.152344 C 29.722656 25.210938 29.722656 25.238281 29.722656 25.269531 C 29.722656 25.296875 29.695312 25.324219 29.695312 25.351562 C 29.695312 25.382812 29.695312 25.382812 29.695312 25.410156 C 29.695312 25.4375 29.667969 25.496094 29.667969 25.523438 C 29.667969 25.523438 29.667969 25.550781 29.667969 25.550781 L 29.609375 25.667969 C 29.609375 25.667969 29.582031 25.695312 29.582031 25.695312 C 29.582031 25.695312 29.550781 25.722656 29.550781 25.722656 C 29.523438 25.722656 29.496094 25.78125 29.46875 25.78125 L 29.410156 25.808594 L 29.296875 25.835938 C 29.296875 25.835938 29.269531 25.835938 29.269531 25.835938 C 29.269531 25.835938 29.269531 25.835938 29.238281 25.835938 C 29.210938 25.835938 29.183594 25.835938 29.125 25.835938 L 29.070312 25.808594 L 29.039062 25.808594 C 28.984375 25.78125 29.070312 25.808594 29.070312 25.808594 C 29.039062 25.78125 29.011719 25.78125 28.984375 25.75 L 28.925781 25.722656 C 28.871094 25.667969 28.871094 25.667969 28.839844 25.636719 L 28.8125 25.582031 L 28.785156 25.550781 L 28.785156 25.523438 C 28.785156 25.496094 28.785156 25.496094 28.785156 25.523438 C 28.785156 25.496094 28.753906 25.46875 28.753906 25.4375 C 28.753906 25.410156 28.753906 25.410156 28.753906 25.382812 C 28.753906 25.382812 28.753906 25.324219 28.753906 25.296875 Z M 28.839844 25.039062 C 28.839844 25.011719 28.839844 25.011719 28.839844 25.039062 Z M 28.839844 25.039062 " fill-opacity="1" fill-rule="nonzero"></path><path fill="#ffffff" d="M 29.269531 25.867188 C 29.296875 25.867188 29.296875 25.867188 29.269531 25.867188 L 29.296875 25.867188 C 29.296875 25.835938 29.269531 25.835938 29.269531 25.867188 Z M 29.269531 25.867188 " fill-opacity="1" fill-rule="nonzero"></path></svg>